<?xml version="1.0" standalone="no"?>
<!DOCTYPE svg PUBLIC "-//W3C//DTD SVG 20010904//EN"
 "http://www.w3.org/TR/2001/REC-SVG-20010904/DTD/svg10.dtd">
<svg version="1.0" xmlns="http://www.w3.org/2000/svg"
 width="133.000000pt" height="133.000000pt" viewBox="0 0 133.000000 133.000000"
 preserveAspectRatio="xMidYMid meet">
<metadata>
Created by potrace 1.11, written by Peter Selinger 2001-2013
</metadata>
<g transform="translate(0.000000,133.000000) scale(0.100000,-0.100000)"
fill="#000000" stroke="none">
<path d="M115 1029 l-115 -141 19 -26 c11 -15 70 -88 132 -162 61 -74 157
-190 212 -257 55 -68 103 -123 107 -123 17 0 131 93 180 147 111 121 107 204
-11 263 -72 37 -138 92 -158 133 -38 75 -5 168 92 260 l51 47 -197 0 -196 0
-116 -141z"/>
<path d="M830 1133 c-110 -73 -170 -140 -170 -190 0 -35 47 -75 120 -104 73
-28 135 -84 145 -129 11 -51 -3 -112 -42 -177 -38 -65 -146 -182 -227 -248
-27 -22 -60 -49 -73 -60 l-23 -20 52 -66 51 -67 76 92 c296 355 591 716 591
723 0 4 -13 22 -28 40 -15 17 -65 79 -112 136 l-85 106 -110 0 -110 1 -55 -37z"/>
</g>
</svg>
