<?xml version="1.0" encoding="utf-8"?>
<!-- Generator: Adobe Illustrator 17.1.0, SVG Export Plug-In . SVG Version: 6.00 Build 0)  -->
<!DOCTYPE svg PUBLIC "-//W3C//DTD SVG 1.1//EN" "http://www.w3.org/Graphics/SVG/1.1/DTD/svg11.dtd">
<svg version="1.1" id="Capa_1" xmlns="http://www.w3.org/2000/svg" xmlns:xlink="http://www.w3.org/1999/xlink" x="0px" y="0px"
	 viewBox="0 0 1000 1000" enable-background="new 0 0 1000 1000" xml:space="preserve">
<path fill="#FFFFFF" d="M999.8,350c-1.7-28.5-35.6-50.8-103.4-67.8c2.3-5,3.6-10.2,3.6-15.6V150h-0.3c-6-97.1-404-100-449.7-100
	S6.3,52.9,0.3,150H0v2.2l0,0l0,0v114.5c0.1,31.7,40.9,56.5,101.8,74.9c-0.8,2.8-1.3,5.6-1.5,8.5H100v2.2l0,0l0,0v114.3
	c-65.5,16.9-98.2,38.8-99.8,66.9H0v2.2l0,0l0,0V650c0,22,19.9,40.8,52.5,56.3c-1.2,3.4-2,6.8-2.2,10.4H50v2.2l0,0l0,0v114.5
	c0.1,55.4,124.9,89.8,263.6,105.9c1,0.2,2,0.6,3,0.6c0.3,0,0.6-0.2,0.9-0.2c26.7,3,53.9,5.4,80.8,7c0.6,0.1,1.1,0.3,1.7,0.3
	c0.3,0,0.6-0.2,0.9-0.2C435,949,468.6,950,500,950s65-1,99.1-3.1c0.3,0,0.6,0.2,0.9,0.2c0.6,0,1.1-0.3,1.6-0.3
	c26.9-1.7,54.1-4,80.8-7c0.3,0,0.6,0.2,0.9,0.2c1.1,0,2-0.4,3-0.6C825,923.2,949.8,888.7,950,833.3V716.7h-0.3
	c-1.2-20.4-18.6-37.5-53-51.7c2.1-4.8,3.3-9.8,3.3-15V541c59.8-18.4,99.9-43,100-74.4V350H999.8z M864.9,655.3l-5.7,5
	c-8.7,7.7-23.3,15.5-42.5,23v-79.5c19.8-6.9,36.7-14.5,50-22.9v69C866.7,651.6,866,653.5,864.9,655.3z M492.1,732.8
	c-2.4,0.1-4.9,0.1-7.3,0.1c-6,0.1-12,0.1-18.1,0.2v-83.2c4.6,0,9.2-0.1,13.8-0.2c0.9,0,1.8,0,2.6,0c16.8-0.3,33.6-0.8,50.3-1.6v83.2
	c-3.6,0.2-7.1,0.3-10.8,0.5C512.5,732.2,502.4,732.5,492.1,732.8z M419.3,733c-7.6-0.1-15.2-0.3-22.8-0.6c-0.9,0-1.9-0.1-2.8-0.1
	c-9.1-0.3-18.1-0.7-27-1.1v-83.2c16.7,0.8,33.5,1.3,50.3,1.6c0.9,0,1.8,0,2.6,0c4.6,0.1,9.2,0.2,13.8,0.2v83.3c-3.2,0-6.5,0-9.7-0.1
	C422.2,733.1,420.8,733.1,419.3,733z M118.3,695c-0.6-0.2-1.1-0.3-1.6-0.5V614c15.6,4.2,32.3,8,50,11.5v81.4
	c-15.3-3.3-29.4-6.7-42.3-10.2C122.4,696.2,120.3,695.6,118.3,695z M469.6,833.1c4.6,0.1,9.2,0.1,13.8,0.2v83.3
	c-23-0.2-45.3-0.9-66.7-1.9v-83.2c16.7,0.8,33.5,1.3,50.3,1.6C467.8,833,468.7,833,469.6,833.1z M533.1,833
	c16.8-0.3,33.6-0.8,50.3-1.6v83.2c-21.4,1-43.6,1.7-66.7,1.9v-83.3c4.6,0,9.2-0.1,13.8-0.2C531.3,833,532.2,833,533.1,833z
	 M666.7,825.5v82.8c-16,1.7-32.7,3.2-50,4.4v-83.1C633.6,828.4,650.3,827,666.7,825.5z M700,821.9c17.2-2.1,33.9-4.4,50-7v81.8
	c-15.7,2.8-32.4,5.3-50,7.6V821.9z M783.3,808.9c17.7-3.5,34.4-7.3,50-11.5v80.5c-14.8,4.3-31.6,8.4-50,12.3V808.9z M216.7,808.9
	v81.3c-18.4-3.9-35.1-8.1-50-12.3v-80.5C182.2,801.6,199,805.4,216.7,808.9z M250,814.8c16.1,2.6,32.8,5,50,7v82.4
	c-17.6-2.3-34.3-4.9-50-7.6V814.8z M333.3,825.5c16.4,1.6,33.1,2.9,50,4v83.1c-17.3-1.2-34-2.7-50-4.4V825.5z M292,725.8
	c-1.7-0.2-3.4-0.3-5.1-0.5c-1.2-0.1-2.4-0.3-3.6-0.4v-82.8c16.4,1.6,33.1,2.9,50,4v83C319.3,728.3,305.5,727.1,292,725.8z
	 M250,638.5V721c-17.6-2.3-34.3-4.9-50-7.6v-81.8C216.1,634.1,232.8,636.5,250,638.5z M577.8,728.5c-3.7,0.3-7.4,0.6-11.1,0.8v-83.1
	c16.9-1.1,33.6-2.5,50-4v82.8c-10.3,1.1-20.8,2.1-31.6,3C582.6,728.1,580.2,728.3,577.8,728.5z M650,721v-82.4
	c17.2-2.1,33.9-4.4,50-7v81.8C684.3,716.1,667.6,718.7,650,721z M733.3,625.6c17.7-3.5,34.4-7.3,50-11.5v80.5
	c-14.8,4.3-31.6,8.4-50,12.4V625.6z M505.4,549.4c-12.5-0.3-24.8-0.8-36.8-1.4c-0.6,0-1.3-0.1-1.9-0.1v-83.2
	c16.7,0.8,33.5,1.3,50.3,1.6c0.9,0,1.8,0,2.6,0c4.6,0.1,9.2,0.2,13.8,0.2v83.2c-8.1-0.1-16.3-0.1-24.2-0.3
	C507.9,549.5,506.6,549.5,505.4,549.4z M116.7,311.2v-80.5c15.6,4.2,32.3,8,50,11.5v81.4c-2.1-0.4-4.2-0.9-6.2-1.3
	c-8.9-2-17.5-4-25.8-6.1C128.4,314.5,122.4,312.9,116.7,311.2z M419.6,266.4c4.6,0.1,9.2,0.1,13.8,0.2v83.2
	c-22.4-0.2-44.7-0.8-66.7-1.9v-83.1c16.7,0.8,33.5,1.3,50.3,1.6C417.8,266.4,418.7,266.4,419.6,266.4z M483.1,266.3
	c16.8-0.3,33.6-0.8,50.3-1.6v83.1c-2.8,0.1-5.6,0.3-8.4,0.5c-0.2,0-0.5,0-0.7,0c-11.2,0.5-22.6,0.9-34.1,1.1
	c-1.8,0.1-3.6,0.1-5.4,0.1c-5.9,0.1-12,0.1-18,0.2v-83.3c4.6,0,9.2-0.1,13.8-0.2C481.3,266.4,482.2,266.4,483.1,266.3z M862.8,274.7
	l-0.5-0.1l-6.1,4.7c-8.8,6.9-22.3,13.8-39.7,20.5v-79.3c19.8-6.9,36.7-14.6,50-22.9v69C866.7,269.1,865.3,271.8,862.8,274.7z
	 M650,337.5v-82.3c17.2-2.1,33.9-4.4,50-7v81.7C684.2,332.7,667.6,335.2,650,337.5z M733.3,323.5v-81.2c17.7-3.5,34.4-7.3,50-11.5
	v80.3C768.4,315.4,751.6,319.6,733.3,323.5z M616.7,258.8v82.7c-16.1,1.7-32.8,3.2-50,4.4v-83C583.6,261.7,600.3,260.4,616.7,258.8z
	 M283.3,341.5v-82.7c16.4,1.6,33.1,2.9,50,4v83C316.4,344.6,299.6,343.2,283.3,341.5z M250,255.2v82.3c-3.3-0.4-6.7-0.8-10-1.2
	c-2.1-0.3-4.2-0.6-6.3-0.9c-9.6-1.4-19-2.9-28.3-4.4c-1.8-0.3-3.6-0.7-5.4-1v-81.8C216.1,250.8,232.8,253.2,250,255.2z M429.2,545.6
	c-2.3-0.2-4.5-0.3-6.8-0.5c-10.7-0.8-21.1-1.8-31.3-2.8c-2.2-0.2-4.4-0.4-6.5-0.7c-0.5,0-0.9-0.1-1.3-0.2v-82.8
	c16.4,1.6,33.1,2.9,50,4v83.1C432,545.8,430.6,545.8,429.2,545.6z M319.1,533.2c-6.6-1-12.8-2.2-19.1-3.3v-81.7
	c16.1,2.6,32.8,5,50,7v82.4c-10.2-1.3-20.2-2.8-29.8-4.3C319.9,533.3,319.5,533.3,319.1,533.2z M266.7,442.2v81.2
	c-18.4-3.9-35.1-8.1-50-12.5v-80.2C232.2,434.9,249,438.8,266.7,442.2z M183.3,420.5v79.2c-26.2-10.1-43.1-20.4-48.6-29.6l-1.1-1.9
	c-0.1-0.5-0.3-1.1-0.3-1.6v-69C146.7,406,163.5,413.6,183.3,420.5z M583.1,466.3c16.8-0.3,33.6-0.8,50.3-1.6v83.1
	c-21.9,1.1-44.2,1.7-66.7,1.9v-83.2c4.6-0.1,9.2-0.1,13.8-0.2C581.3,466.4,582.2,466.4,583.1,466.3z M798.5,530.3
	c-7.3,1.3-14.7,2.5-22.3,3.7c-4.4,0.7-8.8,1.3-13.3,1.9c-4.2,0.6-8.6,1.1-12.9,1.7v-82.4c17.2-2.1,33.9-4.4,50-7V530
	C799.5,530.1,799,530.2,798.5,530.3z M685.6,544.5c-6.2,0.5-12.6,0.8-18.9,1.3v-83c16.9-1.1,33.6-2.4,50-4v82.7
	c-9.7,1-19.3,2-29.3,2.9C686.8,544.4,686.2,544.5,685.6,544.5z M876.1,513.3c-8.3,2.3-17.1,4.5-26,6.6c-4.2,1-8.4,1.9-12.7,2.9
	c-1.3,0.3-2.7,0.5-4,0.8v-81.3c17.7-3.5,34.4-7.3,50-11.5v80.5C880.9,511.9,878.5,512.6,876.1,513.3z M966.5,351.1
	c-1.5,11.3-27.2,26.4-73,40.5l0,0c-59,18.2-151.2,34.9-268.2,40.1c-6,0.2-11.9,0.5-18,0.7c-5,0.2-10,0.3-15.1,0.5
	c-13.8,0.3-27.8,0.5-42.2,0.5s-28.4-0.2-42.2-0.5c-5.1-0.1-10.1-0.3-15.1-0.5c-6.1-0.2-12.1-0.5-18-0.7
	c-116.9-5.2-209.2-21.9-268.2-40.1l0,0c-45.4-14-71-29-72.9-40.2c0.1-0.3,0.1-0.6,0.3-1c1.1,0.3,2.4,0.5,3.6,0.8
	c6.5,1.5,13.2,3,20,4.5c33.1,7.1,69.8,13,108.9,17.5c0.1,0,0.2,0.1,0.4,0.1c0,0,0.1,0,0.1,0c26.6,3,54.3,5.4,82.6,7.1
	c0.2,0,0.4,0.1,0.6,0.1c0.1,0,0.2-0.1,0.3-0.1c20.4,1.2,41.1,2.1,62,2.6c12.8,0.3,25.4,0.5,37.6,0.5c8.8,0,17.7-0.1,26.8-0.3
	c121.1-1.9,233.3-16.3,311.4-38.6c3.6-1,7.1-2.1,10.6-3.1c2.1-0.6,4.3-1.3,6.3-1.9c6-1.9,11.8-3.9,17.4-6c1-0.4,1.9-0.7,2.9-1.1
	c4.7-1.8,9.3-3.6,13.6-5.5c1.3-0.6,2.5-1.1,3.8-1.6c4.6-2.1,9.1-4.2,13.2-6.4c1.9-1,3.5-2,5.2-3c2-1.1,4-2.3,5.9-3.5
	c1-0.7,2.3-1.3,3.3-2C944.9,326.5,964.6,344.2,966.5,351.1z M450,83.3c274.8,0,413.8,43.3,416.4,68.1c-2,11.3-27.6,26.2-72.9,40.2
	l0,0c-59,18.2-151.2,34.9-268.2,40.1c-6,0.3-12,0.5-18.1,0.7c-5,0.2-10,0.3-15.1,0.5c-13.8,0.3-27.8,0.5-42.2,0.5
	s-28.4-0.2-42.2-0.5c-5.1-0.1-10.1-0.3-15.1-0.5c-6.1-0.2-12.1-0.5-18-0.7c-116.9-5.2-209.2-21.8-268.2-40.1l0,0
	c-45.3-14-70.9-28.9-72.9-40.1C36.2,126.6,175.2,83.3,450,83.3z M33.3,266.6v-69c13.3,8.4,30.2,16,50,22.9v79.8
	C50.9,288.2,33.4,276,33.3,266.6z M114.1,497.3c0.3,0.3,0.6,0.5,0.9,0.8c22.8,23,70.1,41.1,128.9,54.6c1.4,0.3,2.8,0.6,4.1,0.9
	c4.3,1,8.7,1.9,13.1,2.8c54,11.5,118.5,19.8,188.8,23.9c0,0,0.1,0,0.1,0c0,0,0,0,0.1,0c22.6,1.3,45.6,2.2,69.2,2.6
	c10.4,0.2,20.7,0.3,30.7,0.3c11.5,0,23.3-0.1,35.3-0.4c21.8-0.5,43.3-1.3,64.5-2.6c0.1,0,0.1,0,0.2,0c0.1,0,0.3-0.1,0.4-0.1
	c70.4-4.2,136.5-12.5,192.4-24.6c-12.1,6.3-28.7,12.9-49.3,19.3l0,0c-62.3,19.2-161.7,36.8-288,40.8c-3.8,0.1-7.5,0.3-11.2,0.3
	c-4.1,0.1-8.2,0.2-12.4,0.3c-10.5,0.2-21,0.3-31.9,0.3c-14.4,0-28.4-0.2-42.2-0.5c-5.1-0.1-10.1-0.3-15.1-0.5
	c-6.1-0.2-12.1-0.5-18-0.7c-116.9-5.2-209.2-21.9-268.2-40.1l0,0c-45.8-14.2-71.5-29.2-73-40.5C35.4,528.1,52.2,512.4,114.1,497.3z
	 M33.3,649.9v-69c13.3,8.4,30.2,16,50,22.9v79.5l-9.5-3.7l-0.2,0.2C47.5,669,33.4,658.3,33.3,649.9z M83.3,833.3v-69
	c13.3,8.4,30.2,16,50,22.9V867C100.9,854.8,83.4,842.6,83.3,833.3z M866.7,867v-79.8c19.8-6.9,36.7-14.5,50-22.9v69
	C916.7,842.6,899.1,854.8,866.7,867z M916.5,718c-1.8,11.3-27.4,26.3-72.9,40.3l0,0c-59,18.2-151.2,34.9-268.2,40.1
	c-6,0.3-12,0.5-18.1,0.7c-5,0.2-10,0.3-15.1,0.5c-13.8,0.3-27.8,0.5-42.2,0.5c-14.4,0-28.5-0.2-42.3-0.5c-5-0.1-10-0.3-14.9-0.4
	c-6.1-0.2-12.1-0.5-18.2-0.7c-116.9-5.2-209.2-21.9-268.2-40.1l0,0c-44.1-13.6-69.5-28.1-72.7-39.3c5,1.7,10.1,3.4,15.4,5.1
	c0.5,0.2,1.1,0.3,1.6,0.5c4.5,1.4,9.1,2.7,13.8,4c1.8,0.5,3.6,1,5.4,1.5c2.7,0.7,5.4,1.4,8.1,2.1c60.7,15.5,138.2,26.6,221.8,31.5
	c0,0,0.1,0,0.1,0c0,0,0,0,0,0c25.8,1.5,52.2,2.5,78.9,2.8c7.1,0.1,14.1,0.2,21.1,0.2c9.2,0,18.6-0.1,28.1-0.3
	c24.3-0.4,48.3-1.3,71.8-2.7c0,0,0.1,0,0.1,0c0.1,0,0.1,0,0.2,0c28.6-1.7,56.3-4.2,82.8-7.2c0.1,0,0.2,0,0.3,0c0.4,0,0.7-0.2,1-0.2
	c29.6-3.4,57.7-7.6,83.7-12.5c5.4-1,10.7-2,15.9-3c1.2-0.2,2.3-0.5,3.5-0.7c49.2-10.1,91.8-23.2,121-39.4c1.6-0.9,3.1-1.8,4.6-2.6
	c1.8-1.1,3.6-2.2,5.3-3.4c1.6-1,3.5-2,4.9-3.1C906.3,703.3,915.4,713.8,916.5,718z M916.7,500.3v-79.8c19.8-6.9,36.7-14.5,50-22.9
	v69C966.7,476,949.1,488.1,916.7,500.3z"/>
</svg>
