<?xml version="1.0" encoding="utf-8"?>
<!-- Generator: Adobe Illustrator 17.1.0, SVG Export Plug-In . SVG Version: 6.00 Build 0)  -->
<!DOCTYPE svg PUBLIC "-//W3C//DTD SVG 1.1//EN" "http://www.w3.org/Graphics/SVG/1.1/DTD/svg11.dtd">
<svg version="1.1" id="Layer_1" xmlns="http://www.w3.org/2000/svg" xmlns:xlink="http://www.w3.org/1999/xlink" x="0px" y="0px"
	 viewBox="0 0 1000 1000" enable-background="new 0 0 1000 1000" xml:space="preserve">
<g transform="translate(1 1)">
	<g>
		<path fill="#FFFFFF" d="M949,829c-99.5-52.7-175.8-82.3-243.7-93.7l7-9.7c3.3-3.3,5-8.3,3.3-13.3L700,649.9
			c41.3-58.4,65.6-131.4,65.6-200.9v-66.7h16.7h33.3c10,0,16.7-6.7,16.7-16.7s-6.7-16.7-16.7-16.7H799v-16.7
			c0-131.7-86.7-243.3-216.7-280V49c0-26.7-21.7-50-50-50h-66.7c-26.7,0-50,21.7-50,50v3.3C285.7,89,199,200.7,199,332.3V349h-16.7
			c-10,0-16.7,6.7-16.7,16.7s6.7,16.7,16.7,16.7h33.3h16.7V449c0,69.4,24.3,142.5,65.6,200.9l-15.6,62.5c0,3.3,0,10,3.3,13.3l7,9.7
			C224.8,746.7,148.5,776.2,49,829c-31.7,15-50,46.7-50,81.7v71.7c0,10,6.7,16.7,16.7,16.7h400h6.7h153.3h6.7h400
			c10,0,16.7-6.7,16.7-16.7v-71.7C999,877.3,979,845.7,949,829z M489,813.6l10.1-22.7l24.9,54.8l16.3,36.7H459L489,813.6z
			 M446.3,915.7h105.2l9.5,50H436.3L446.3,915.7z M674,682.3l6.7,30l-17,23.4c-1.1,0.9-2.1,2-3,3.3l-69.3,96l-22,30.2l-44.9-101.1
			c53.7-6.6,101.7-33.5,140.4-72.3c0.4-0.4,0.9-0.8,1.3-1.3c0.1-0.1,0.2-0.2,0.3-0.3C669,687.7,671.5,685,674,682.3z M652.3,120.9
			c1.9,1.2,3.7,2.5,5.5,3.8C679,140.5,698.6,159,714,179l-76.7,15L652.3,120.9z M360.7,194L284,179c15.4-20,35-38.5,56.2-54.3
			c1.8-1.3,3.6-2.5,5.5-3.8L360.7,194z M232.3,332.3c0-44.4,11.2-86.2,31.4-122.8L379,232.3c1.7,0,1.7,0,3.3,0c5,0,8.3-1.7,13.3-3.3
			c5-3.3,6.7-10,5-15l-22.9-111.4c12.1-5.8,24.7-10.8,37.9-14.9v44.6c0,10,6.7,16.7,16.7,16.7s16.7-6.7,16.7-16.7V65.7V49
			c0-8.3,6.7-16.7,16.7-16.7h66.7c8.3,0,16.7,6.7,16.7,16.7v16.7v66.7c0,10,6.7,16.7,16.7,16.7s16.7-6.7,16.7-16.7V87.8
			c13.6,4.2,26.7,9.4,39.1,15.4L599,212.3c0,5,1.7,11.7,5,15c3.3,3.3,6.7,5,11.7,5c1.7,0,1.7,0,3.3,0l114.5-24.1
			c20.7,36.9,32.1,79.2,32.1,124.1V349H749H249h-16.7L232.3,332.3L232.3,332.3z M265.7,382.3h466.7V449
			c0,72.7-24.9,137.3-62.4,186.3l-1,0.3c-1.7,1.7-3.3,3.3-5,5c-8.4,11.2-17.2,21.4-26.5,30.6c-39.2,36.6-86.1,58.7-131.2,60.9
			c-2.3-1-4.8-1.5-7.4-1.5c-2.6,0-4.9,0.5-6.9,1.5c-27.6-1.3-55.9-10-82.6-25c-27.1-15.6-52.7-38.1-75.4-66.5c-1.7-1.7-3.3-3.3-5-5
			l-1-0.3c-37.4-49.1-62.4-113.7-62.4-186.3L265.7,382.3L265.7,382.3z M473.6,764.1l-44.9,101.1l-22-30.2l-69.3-96
			c-0.5-0.5-1.1-1.1-1.7-1.6l-18.3-25.1l6.7-30c2.3,2.4,4.6,4.8,6.9,7.1C370,729.5,418.8,757.4,473.6,764.1z M32.3,910.7
			C32.3,889,44,869,64,859c106.2-56.4,182.7-84.8,250.8-93.2l99.5,136.8l-12.6,63.1H32.3V910.7z M965.7,965.7H596.3l-12.6-63.1
			l100.5-138.2c67.9,10.2,145.7,38.5,249.8,93c20,11.7,31.7,31.7,31.7,53.3V965.7z"/>
	</g>
</g>
</svg>
