<?xml version="1.0" encoding="utf-8"?>
<!-- Generator: Adobe Illustrator 17.1.0, SVG Export Plug-In . SVG Version: 6.00 Build 0)  -->
<!DOCTYPE svg PUBLIC "-//W3C//DTD SVG 1.1//EN" "http://www.w3.org/Graphics/SVG/1.1/DTD/svg11.dtd">
<svg version="1.1" id="Layer_1" xmlns="http://www.w3.org/2000/svg" xmlns:xlink="http://www.w3.org/1999/xlink" x="0px" y="0px"
	 viewBox="0 0 1000 1000" enable-background="new 0 0 1000 1000" xml:space="preserve">
<g>
	<g>
		<g>
			<path fill="#FFFFFF" d="M887.1,661.3H758.4c37,0,71.8-13.8,99-39.2c29.2-27.3,45.9-66,45.9-105.9V451
				c0-61.9-50.4-112.3-112.3-112.3h-65.6c-59.7,0-108.6,46.9-112,105.8c-6.9-4.1-14.6-7-22.9-8.3c-13.7-20.5-36.7-33-61.9-33h-69
				c-28.8,0-55,11.7-73.9,30.6c-8.6-53.8-55.2-95.1-111.4-95.1h-64.5c-62.3,0-112.9,50.6-112.9,112.9v60.1
				c0,78.8,59.5,144.4,135.5,149.3c3.2,0.2,6.4,0.3,9.5,0.3H112.9C50.6,661.3,0,711.9,0,774.2v161.3h258.1v64.5h483.9v-64.5H1000
				V774.2C1000,711.9,949.4,661.3,887.1,661.3z M789,693.5l-31,38.7l-31-38.7H789z M725.2,371h65.6c43,0,77.9,34.1,79.7,76.6
				c-74-15.7-151.1-15.7-225.1,0C647.4,405.1,682.3,371,725.2,371z M645.2,500v-19.3c74-16.9,151.7-16.9,225.8,0v35.5
				c0,31.5-12.7,60.8-35.7,82.4c-23,21.6-53.1,32.3-84.7,30.3c-59.1-3.8-105.4-55.3-105.4-117.1V500z M643.2,603.1
				c24.7,32.9,62.3,55.1,105.2,57.8c3.2,0.2,6.3,0.3,9.5,0.3H629c-3,0-6,0.5-9,0.7C632,644.4,639.9,624.2,643.2,603.1z M387.1,516.1
				v-8.3c0-39.9,32.5-72.3,72.3-72.3h69c16.1,0,30.6,9,37.8,23.3l4.5,8.9h10c17.8,0,32.3,14.5,32.3,32.3v11.7v34
				c-14.9-5-27.1-16.7-32.3-32.3l-4.5-13.5h-34.4l-19.2,19.2c-8.4,8.4-19.6,13-31.4,13H387.1V516.1z M387.1,564.5H491
				c20.5,0,39.7-8,54.2-22.5l8.7-8.7c11.4,23.8,33.3,40.5,59,45.5v1.8c0,31.5-12.7,60.8-35.7,82.4c-23,21.6-53.2,32.3-84.7,30.3
				c-59.1-3.8-105.4-55.3-105.4-117.1V564.5z M527.7,758.1l-8.1,32.3h-39.3l-8.1-32.3H527.7z M471.2,722.8
				c6.3,1.3,12.6,2.3,19.2,2.7c3.2,0.2,6.4,0.3,9.5,0.3h-27.3C472.1,724.8,471.7,723.7,471.2,722.8z M527.5,725.8h-27.2
				c9.7,0,19.2-1,28.4-2.9C528.3,723.9,527.9,724.9,527.5,725.8z M357.4,603.8c3.9,21.4,12.2,41.1,24,58.3
				c-3.5-0.3-6.9-0.8-10.4-0.8H242.2c37,0,71.8-13.8,99-39.2C347.2,616.5,352.5,610.3,357.4,603.8z M129,451.6
				c0-44.5,36.2-80.6,80.6-80.6h64.5c44.5,0,80.6,36.2,80.6,80.6v29.6c-14.9-5-27.1-16.7-32.3-32.3l-4.5-13.5h-34.4l-19.2,19.2
				c-8.4,8.4-19.6,13-31.4,13H129V451.6z M234.4,628.8C175.3,625,129,573.5,129,511.7V500H233c20.5,0,39.7-8,54.2-22.5l8.7-8.7
				c11.4,23.8,33.3,40.5,59,45.5v1.8c0,31.5-12.7,60.8-35.7,82.4C296.1,620.1,266,630.8,234.4,628.8z M287.4,693.5
				c-6.7,18.7-24.4,32.3-45.4,32.3s-38.7-13.5-45.4-32.3H287.4z M258.1,903.2H129V790.3H96.8v112.9H32.3v-129
				c0-44.5,36.2-80.6,80.6-80.6h50c7.5,36.8,40.1,64.5,79,64.5s71.5-27.8,79-64.5h50c25.7,0,49.4,12.4,64.4,32.3H371
				c-62.3,0-112.9,50.6-112.9,112.9V903.2z M387.1,967.7V854.8h-32.3v112.9h-64.5v-129c0-44.5,36.2-80.6,80.6-80.6h68l12.3,49.2
				l-17.1,119.8l60.9,40.6H387.1z M469,911.6l12.7-89h36.5l12.7,89l-31,20.6L469,911.6z M709.7,967.7h-64.5V854.8h-32.3v112.9h-108
				l60.9-40.6l-17.1-119.8l12.3-49.2h68c44.5,0,80.6,36.2,80.6,80.6V967.7z M967.7,903.2h-64.5V790.3H871v112.9h-129v-64.5
				c0-62.3-50.6-112.9-112.9-112.9h-64.4c15-19.9,38.6-32.3,64.4-32.3h56.8l72.3,90.3l72.3-90.3h56.8c44.5,0,80.6,36.2,80.6,80.6
				V903.2z"/>
			<rect x="435.5" y="64.5" fill="#FFFFFF" width="290.3" height="32.3"/>
			<rect x="274.2" y="64.5" fill="#FFFFFF" width="129" height="32.3"/>
			<rect x="274.2" y="129" fill="#FFFFFF" width="451.6" height="32.3"/>
			<rect x="693.5" y="193.5" fill="#FFFFFF" width="32.3" height="32.3"/>
			<rect x="274.2" y="193.5" fill="#FFFFFF" width="387.1" height="32.3"/>
			<path fill="#FFFFFF" d="M258.1,290.3h182.6L473,371H527l32.3-80.6h182.6c26.7,0,48.4-21.7,48.4-48.4V48.4
				c0-26.7-21.7-48.4-48.4-48.4H258.1c-26.7,0-48.4,21.7-48.4,48.4v193.5C209.7,268.6,231.4,290.3,258.1,290.3z M241.9,48.4
				c0-8.9,7.2-16.1,16.1-16.1h483.9c8.9,0,16.1,7.2,16.1,16.1v193.5c0,8.9-7.2,16.1-16.1,16.1H537.5l-32.3,80.6h-10.4l-32.3-80.6
				H258.1c-8.9,0-16.1-7.2-16.1-16.1V48.4z"/>
		</g>
	</g>
</g>
</svg>
