<?xml version="1.0" encoding="utf-8"?>
<!-- Generator: Adobe Illustrator 17.1.0, SVG Export Plug-In . SVG Version: 6.00 Build 0)  -->
<!DOCTYPE svg PUBLIC "-//W3C//DTD SVG 1.1//EN" "http://www.w3.org/Graphics/SVG/1.1/DTD/svg11.dtd">
<svg version="1.1" id="Capa_1" xmlns="http://www.w3.org/2000/svg" xmlns:xlink="http://www.w3.org/1999/xlink" x="0px" y="0px"
	 viewBox="275.5 240 1000 1000" enable-background="new 275.5 240 1000 1000" xml:space="preserve">
<g id="ring">
	<path fill="#2196F3" d="M775.5,270c63.5,0,125,12.4,182.9,36.9c56,23.7,106.2,57.6,149.4,100.7c43.2,43.2,77.1,93.4,100.7,149.4
		c24.5,57.9,36.9,119.5,36.9,182.9s-12.4,125-36.9,182.9c-23.7,56-57.6,106.2-100.7,149.4c-43.2,43.2-93.4,77.1-149.4,100.7
		c-57.9,24.5-119.5,36.9-182.9,36.9s-125-12.4-182.9-36.9c-56-23.7-106.2-57.6-149.4-100.7c-43.2-43.2-77.1-93.4-100.7-149.4
		C317.9,865,305.5,803.5,305.5,740s12.4-125,36.9-182.9c23.7-56,57.6-106.2,100.7-149.4c43.2-43.2,93.4-77.1,149.4-100.7
		C650.5,282.4,712,270,775.5,270 M775.5,240c-276.1,0-500,223.9-500,500c0,276.1,223.9,500,500,500s500-223.9,500-500
		C1275.5,463.9,1051.6,240,775.5,240L775.5,240z"/>
</g>
<path id="call" fill="#FFFFFF" d="M1038,968.1l-40.6,40.6c-6.3,6.3-28.1,12.5-28.1,12.5c-128.1,0-250-50-337.5-137.5
	c-90.6-90.6-140.6-212.5-137.5-340.6c0,0,3.1-21.9,12.5-28.1l40.6-40.6c15.6-15.6,43.7-21.9,62.5-15.6l9.4,3.1
	c18.8,6.2,40.6,28.1,46.9,46.9l18.8,75c6.3,18.8-3.1,50-15.6,62.5l-28.1,28.1c25,96.9,103.1,175,200,200l28.1-28.1
	c15.6-15.6,43.7-21.9,62.5-15.6l75,18.8c18.8,6.3,40.6,25,46.9,46.9l3.1,9.4C1059.9,927.5,1053.6,955.6,1038,968.1z"/>
<polygon id="arrow" fill="#FFFFFF" points="1056.8,536.9 975.5,458.8 847.4,586.9 791.1,533.7 791.1,721.2 981.8,721.2 925.5,668.1 
	"/>
</svg>
