<?xml version="1.0" encoding="utf-8"?>
<!-- Generator: Adobe Illustrator 17.1.0, SVG Export Plug-In . SVG Version: 6.00 Build 0)  -->
<!DOCTYPE svg PUBLIC "-//W3C//DTD SVG 1.1//EN" "http://www.w3.org/Graphics/SVG/1.1/DTD/svg11.dtd">
<svg version="1.1" id="Capa_1" xmlns="http://www.w3.org/2000/svg" xmlns:xlink="http://www.w3.org/1999/xlink" x="0px" y="0px"
	 viewBox="275.5 240 32 32" enable-background="new 275.5 240 32 32" xml:space="preserve">
<linearGradient id="ring_1_" gradientUnits="userSpaceOnUse" x1="291.4997" y1="239.9997" x2="291.4997" y2="271.9998">
	<stop  offset="0" style="stop-color:#56C3C3"/>
	<stop  offset="1" style="stop-color:#0B5757"/>
</linearGradient>
<circle id="ring" fill="url(#ring_1_)" cx="291.5" cy="256" r="16"/>
<path id="call" fill="#FFFFFF" d="M299.9,263.3l-1.3,1.3c-0.2,0.2-0.9,0.4-0.9,0.4c-4.1,0-8-1.6-10.8-4.4c-2.9-2.9-4.5-6.8-4.4-10.9
	c0,0,0.1-0.7,0.4-0.9l1.3-1.3c0.5-0.5,1.4-0.7,2-0.5l0.3,0.1c0.6,0.2,1.3,0.9,1.5,1.5l0.6,2.4c0.2,0.6-0.1,1.6-0.5,2l-0.9,0.9
	c0.8,3.1,3.3,5.6,6.4,6.4l0.9-0.9c0.5-0.5,1.4-0.7,2-0.5l2.4,0.6c0.6,0.2,1.3,0.8,1.5,1.5l0.1,0.3
	C300.6,262,300.4,262.9,299.9,263.3z"/>
<polygon id="arrow" fill="#FFFFFF" points="300.5,249.5 297.9,247 293.8,251.1 292,249.4 292,255.4 298.1,255.4 296.3,253.7 "/>
</svg>
