<?xml version="1.0" encoding="utf-8"?>
<!-- Generator: Adobe Illustrator 17.1.0, SVG Export Plug-In . SVG Version: 6.00 Build 0)  -->
<!DOCTYPE svg PUBLIC "-//W3C//DTD SVG 1.1//EN" "http://www.w3.org/Graphics/SVG/1.1/DTD/svg11.dtd">
<svg version="1.1" id="Layer_1" xmlns="http://www.w3.org/2000/svg" xmlns:xlink="http://www.w3.org/1999/xlink" x="0px" y="0px"
	 viewBox="960 960 1000 1000" enable-background="new 960 960 1000 1000" xml:space="preserve">
<circle fill="#E03A3A" cx="1460" cy="1460" r="500"/>
<path fill="#FFFFFF" d="M1610,1210c55,0,102.5,45,102.5,102.5V1610c0,55-45,102.5-102.5,102.5h-300c-55,0-102.5-45-102.5-102.5
	v-297.5c0-55,45-102.5,102.5-102.5H1610 M1610,1160h-300c-82.5,0-152.5,67.5-152.5,152.5V1610c0,82.5,67.5,152.5,152.5,152.5h300
	c82.5,0,152.5-67.5,152.5-152.5v-297.5C1760,1227.5,1692.5,1160,1610,1160L1610,1160z"/>
<path fill="#FFFFFF" d="M1460,1360c55,0,100,45,100,100s-45,100-100,100s-100-45-100-100S1405,1360,1460,1360 M1460,1310
	c-82.5,0-150,67.5-150,150s67.5,150,150,150s150-67.5,150-150S1542.5,1310,1460,1310L1460,1310z"/>
<circle fill="#FFFFFF" cx="1620" cy="1302.5" r="37.5"/>
</svg>
