<?xml version="1.0" encoding="utf-8"?>
<!-- Generator: Adobe Illustrator 17.1.0, SVG Export Plug-In . SVG Version: 6.00 Build 0)  -->
<!DOCTYPE svg PUBLIC "-//W3C//DTD SVG 1.1//EN" "http://www.w3.org/Graphics/SVG/1.1/DTD/svg11.dtd">
<svg version="1.1" id="Layer_1" xmlns="http://www.w3.org/2000/svg" xmlns:xlink="http://www.w3.org/1999/xlink" x="0px" y="0px"
	 viewBox="960 960 40 40" enable-background="new 960 960 40 40" xml:space="preserve">
<path fill="#E03A3A" d="M980,962c9.9,0,18,8.1,18,18s-8.1,18-18,18s-18-8.1-18-18S970.1,962,980,962 M980,960c-11,0-20,9-20,20
	s9,20,20,20s20-9,20-20S991,960,980,960L980,960z"/>
<path fill="#FFFFFF" d="M986,970c2.2,0,4.1,1.8,4.1,4.1V986c0,2.2-1.8,4.1-4.1,4.1h-12c-2.2,0-4.1-1.8-4.1-4.1v-11.9
	c0-2.2,1.8-4.1,4.1-4.1H986 M986,968h-12c-3.3,0-6.1,2.7-6.1,6.1V986c0,3.3,2.7,6.1,6.1,6.1h12c3.3,0,6.1-2.7,6.1-6.1v-11.9
	C992,970.7,989.3,968,986,968L986,968z"/>
<path fill="#FFFFFF" d="M980,976c2.2,0,4,1.8,4,4s-1.8,4-4,4s-4-1.8-4-4S977.8,976,980,976 M980,974c-3.3,0-6,2.7-6,6s2.7,6,6,6
	s6-2.7,6-6S983.3,974,980,974L980,974z"/>
<circle fill="#FFFFFF" cx="986.4" cy="973.7" r="1.5"/>
</svg>
