<?xml version="1.0" encoding="utf-8"?>
<!-- Generator: Adobe Illustrator 17.1.0, SVG Export Plug-In . SVG Version: 6.00 Build 0)  -->
<!DOCTYPE svg PUBLIC "-//W3C//DTD SVG 1.1//EN" "http://www.w3.org/Graphics/SVG/1.1/DTD/svg11.dtd">
<svg version="1.1" id="Layer_1" xmlns="http://www.w3.org/2000/svg" xmlns:xlink="http://www.w3.org/1999/xlink" x="0px" y="0px"
	 viewBox="960 960 40 40" enable-background="new 960 960 40 40" xml:space="preserve">
<path fill="#E03A3A" d="M986,970.6h-12c-1.9,0-3.5,1.5-3.5,3.5V986c0,1.9,1.5,3.5,3.5,3.5h12c1.9,0,3.5-1.5,3.5-3.5v-11.9
	C989.4,972.2,987.9,970.6,986,970.6z M980,986.3c-3.4,0-6.2-2.8-6.2-6.2s2.8-6.2,6.2-6.2s6.2,2.8,6.2,6.2S983.4,986.3,980,986.3z
	 M986.4,975.1c-0.8,0-1.5-0.7-1.5-1.5c0-0.8,0.7-1.5,1.5-1.5c0.8,0,1.5,0.7,1.5,1.5C987.9,974.5,987.2,975.1,986.4,975.1z"/>
<path fill="#E03A3A" d="M980,976.5c-2,0-3.6,1.6-3.6,3.6s1.6,3.6,3.6,3.6s3.6-1.6,3.6-3.6S982,976.5,980,976.5z"/>
<path fill="#E03A3A" d="M980,960c-11,0-20,9-20,20s9,20,20,20s20-9,20-20S991,960,980,960z M992,986c0,3.3-2.7,6.1-6.1,6.1H974
	c-3.3,0-6.1-2.7-6.1-6.1v-11.9c0-3.3,2.7-6.1,6.1-6.1h12c3.3,0,6.1,2.7,6.1,6.1L992,986L992,986z"/>
</svg>
