<?xml version="1.0" encoding="utf-8"?>
<!-- Generator: Adobe Illustrator 17.1.0, SVG Export Plug-In . SVG Version: 6.00 Build 0)  -->
<!DOCTYPE svg PUBLIC "-//W3C//DTD SVG 1.1//EN" "http://www.w3.org/Graphics/SVG/1.1/DTD/svg11.dtd">
<svg version="1.1" id="Layer_1" xmlns="http://www.w3.org/2000/svg" xmlns:xlink="http://www.w3.org/1999/xlink" x="0px" y="0px"
	 viewBox="789.2 1770.5 211 40" enable-background="new 789.2 1770.5 211 40" xml:space="preserve">
<path id="logo" d="M806.2,1801.6l-17.1-20.7l8.6-10.4h14.3c0,0-13.7,9.4,0.8,16.2C822.4,1791.1,806.4,1801.2,806.2,1801.6z
	 M829.3,1770.6h-7.7c0-0.1-16,8.3-3.9,12c15.6,6.4-8.3,23-8.2,23.1l3.9,4.8l24.4-29.5L829.3,1770.6z"/>
<path id="brand" d="M842.5,1790.8c0.2,0,0.3,0.1,0.6,0.4c0.7,0.7,1.5,1.3,2.4,1.8c1,0.4,1.9,0.7,2.8,0.7c1,0,1.6-0.3,1.6-1
	c0-0.4-0.2-0.9-0.5-1.4c-0.4-0.5-1.2-1.5-2.6-3c-1.7-1.9-2.9-3.3-3.5-4.2c-0.8-1.2-1.1-2.4-1.1-3.4c0-1.6,0.7-3,2.2-4
	c1.4-1,3.2-1.5,5.3-1.5c1.5,0,2.8,0.3,4,0.9c0.4,0.1,0.8,0.3,1.2,0.6c0.3,0.3,0.5,0.6,0.5,0.8c0,0.1,0,0.2-0.1,0.3s-0.2,0.1-0.3,0.1
	c-0.2,0-0.4-0.1-0.7-0.4c-0.5-0.5-1.1-0.8-1.9-1.1s-1.5-0.4-2.2-0.4c-0.4,0-0.8,0.1-1.1,0.3c-0.3,0.2-0.4,0.4-0.4,0.7
	c0,0.4,0.2,0.8,0.5,1.3c0.3,0.5,0.9,1.2,1.8,2.1c2.6,2.8,4.2,4.7,4.8,5.7c0.6,1,0.9,2,0.9,3c0,0.8-0.2,1.6-0.7,2.3
	c-0.4,0.7-1,1.3-1.8,1.8c-1.5,0.9-3.3,1.3-5.4,1.3c-1.9,0-3.7-0.5-5.1-1.5c-1-0.7-1.6-1.3-1.6-1.7c0-0.1,0-0.2,0.1-0.3
	C842.3,1790.8,842.4,1790.8,842.5,1790.8z M870.6,1774.9c1.4,0,2.7,0.3,4,0.9c1.9,0.9,3.4,2.2,4.4,4.1c0.8,1.5,1.2,3.1,1.2,4.8
	c0,1.4-0.3,2.7-0.9,4c-0.9,1.9-2.3,3.4-4.3,4.4c-1.4,0.9-2.9,1.2-4.4,1.2c-1.6,0-3.2-0.4-4.7-1.3c-2-1.1-3.4-2.7-4.2-4.7
	c-0.5-1.2-0.8-2.5-0.8-3.8c0-1.6,0.4-3.2,1.2-4.7c1-1.8,2.4-3.2,4.3-4.1C867.8,1775.3,869.1,1775,870.6,1774.9z M869.5,1775.8
	l-0.1,8.7l0.1,7.3v1.6c0.3,0.1,0.6,0.1,0.9,0.1c2,0,3.7-0.5,5.2-1.6c1.4-1,2.4-2.3,3.1-3.9c0.4-1.1,0.7-2.2,0.7-3.4
	c0-1.6-0.4-3-1.1-4.3c-0.9-1.6-2.2-2.9-3.9-3.6c-1.2-0.6-2.5-0.9-3.9-0.9C870.2,1775.8,869.9,1775.8,869.5,1775.8z M893.3,1781.4
	v3.2l0.1,8.6v0.6h-8.1l0.1-10l-0.1-8.3h14.1c0.6,0,1,0,1.1,0c0.2,0.1,0.3,0.2,0.3,0.4c0,0.3-0.2,0.5-0.6,0.5h-0.1l-6.7-0.1l-0.1,4.2
	h1.4l4.6-0.1h1c0.4,0,0.6,0,0.7,0.1c0.1,0.1,0.2,0.2,0.2,0.4c0,0.3-0.3,0.5-0.9,0.5h-1L893.3,1781.4L893.3,1781.4z M913.8,1781.4
	v3.2l0.1,8.6v0.6h-8.1l0.1-10l-0.1-8.3h14.1c0.6,0,1,0,1.1,0c0.2,0.1,0.3,0.2,0.3,0.4c0,0.3-0.2,0.5-0.6,0.5h-0.1l-6.7-0.1l-0.1,4.2
	h1.4l4.6-0.1h1c0.4,0,0.6,0,0.7,0.1c0.1,0.1,0.2,0.2,0.2,0.4c0,0.3-0.3,0.5-0.9,0.5h-1L913.8,1781.4L913.8,1781.4z M934.5,1775.5
	v0.9l-0.1,7.3l0.1,10h-8.1l0.1-11l-0.1-6.7v-0.7h8.1V1775.5z M952.3,1776.4l-0.1,4.2v4v9.2h-8.1l0.1-10.7v-3.6v-3.1h-1.8l-2.5,0.1
	h-0.4c-0.4,0-0.6-0.2-0.6-0.5c0-0.3,0.1-0.4,0.4-0.5c0.1,0,0.3,0,0.7,0h16.4c0.6,0,0.9,0,1,0.1c0.2,0.1,0.3,0.2,0.3,0.5
	c0,0.3-0.2,0.5-0.7,0.5h-1.2l-3.1-0.1h-0.3L952.3,1776.4L952.3,1776.4z M973.8,1776.4l-0.1,4.2v4v9.2h-8.1l0.1-10.7v-3.6v-3.1h-1.8
	l-2.5,0.1H961c-0.4,0-0.6-0.2-0.6-0.5c0-0.3,0.1-0.4,0.4-0.5c0.1,0,0.3,0,0.7,0h16.4c0.6,0,0.9,0,1,0.1c0.2,0.1,0.3,0.2,0.3,0.5
	c0,0.3-0.2,0.5-0.7,0.5h-1.2l-3.1-0.1h-0.3L973.8,1776.4L973.8,1776.4z M990.5,1774.9c1.4,0,2.7,0.3,4,0.9c1.9,0.9,3.4,2.2,4.4,4.1
	c0.8,1.5,1.2,3.1,1.2,4.8c0,1.4-0.3,2.7-0.9,4c-0.9,1.9-2.3,3.4-4.3,4.4c-1.4,0.7-2.9,1.1-4.5,1.1s-3.2-0.4-4.7-1.3
	c-2-1.1-3.4-2.7-4.2-4.7c-0.5-1.2-0.8-2.5-0.8-3.8c0-1.6,0.4-3.2,1.2-4.7c1-1.8,2.4-3.2,4.3-4.1
	C987.7,1775.3,989.1,1775,990.5,1774.9z M989.5,1775.8l-0.1,8.7l0.1,7.3v1.6c0.3,0.1,0.6,0.1,0.9,0.1c2,0,3.7-0.5,5.2-1.6
	c1.4-1,2.4-2.3,3.1-3.9c0.4-1.1,0.7-2.2,0.7-3.4c0-1.6-0.4-3-1.1-4.3c-0.9-1.6-2.2-2.9-3.9-3.6c-1.2-0.6-2.5-0.9-3.9-0.9
	C990.1,1775.8,989.8,1775.8,989.5,1775.8z"/>
<path id="sign" d="M847.5,1805.1c-0.2,0.2-0.5,0.3-0.9,0.3c-0.4,0.1-0.7,0.1-1.1,0.1s-0.9-0.1-1.3-0.2c-0.4-0.1-0.8-0.3-1.1-0.6
	c-0.3-0.3-0.6-0.7-0.7-1.2c-0.2-0.5-0.3-1-0.3-1.7s0.1-1.3,0.3-1.9c0.2-0.6,0.5-0.9,0.8-1.1c0.3-0.3,0.7-0.5,1.1-0.6
	c0.4-0.1,0.8-0.2,1.2-0.2s0.8,0,1.1,0.1s0.5,0.1,0.7,0.2l-0.3,1.2c-0.2-0.1-0.4-0.1-0.6-0.2c-0.2,0-0.5-0.1-0.8-0.1
	c-0.6,0-1.1,0.2-1.4,0.6c-0.4,0.4-0.5,1-0.5,2c0,0.4,0,0.7,0.1,1s0.2,0.6,0.4,0.8c0.2,0.2,0.4,0.4,0.7,0.5s0.6,0.2,0.9,0.2
	c0.3,0,0.6,0,0.8-0.1c0.2-0.1,0.4-0.1,0.6-0.2L847.5,1805.1z M853.9,1799.4h-2.2v6.1h-1.5v-6.1H848v-1.2h5.8L853.9,1799.4
	L853.9,1799.4z M857.7,1801.4l0.2,0.9h0.1l0.2-1l1.1-3.2h1.4l-2,5c-0.2,0.4-0.3,0.7-0.5,1c-0.1,0.3-0.3,0.5-0.5,0.7
	c-0.2,0.2-0.4,0.3-0.6,0.4c-0.2,0.1-0.4,0.1-0.7,0.1c-0.2,0-0.4,0-0.6,0c-0.1,0-0.3-0.1-0.5-0.2l0.4-1.1c0.1,0.1,0.2,0.1,0.3,0.1
	c0.1,0,0.2,0,0.3,0c0.3,0,0.6-0.3,0.7-0.8l-2.8-5.3h1.7L857.7,1801.4z M867.9,1806.7h-1l-0.2-1.3h-4.8l-0.2,1.3h-1v-2.6h0.8
	c0-0.1,0.1-0.2,0.2-0.5c0.1-0.3,0.2-0.6,0.3-1.1s0.2-1.1,0.3-1.9c0.1-0.7,0.1-1.6,0.1-2.6h4.5v6.1h1L867.9,1806.7L867.9,1806.7z
	 M865.4,1804.1v-4.8h-1.7c0,1.2-0.1,2.3-0.3,3.1s-0.3,1.3-0.5,1.7L865.4,1804.1L865.4,1804.1z M873.3,1801.4l0.1-0.9h-0.1l-0.5,1
	l-2.8,4h-1.1v-7.3h1.5v4l-0.1,1h0.1l0.5-1l2.8-4h1.1v7.3h-1.5V1801.4z M881.2,1805.5h-1.5v-2.9l-0.8,0.2l-1.6,2.7h-1.7l1.5-2.5
	l0.6-0.4c-0.2-0.1-0.4-0.1-0.6-0.3c-0.2-0.1-0.4-0.3-0.5-0.4c-0.2-0.2-0.3-0.4-0.4-0.6c-0.1-0.2-0.1-0.5-0.1-0.8
	c0-0.4,0.1-0.8,0.2-1.1c0.2-0.3,0.4-0.5,0.7-0.7c0.3-0.2,0.6-0.3,1-0.4c0.4-0.1,0.8-0.1,1.3-0.1c0.1,0,0.3,0,0.4,0
	c0.2,0,0.3,0,0.5,0c0.2,0,0.3,0,0.5,0.1c0.2,0,0.3,0,0.4,0.1v7.2L881.2,1805.5L881.2,1805.5z M879.2,1799.3c-0.2,0-0.4,0-0.5,0.1
	c-0.2,0-0.3,0.1-0.4,0.2c-0.1,0.1-0.2,0.2-0.3,0.3c-0.2,0.1-0.2,0.3-0.2,0.5c0,0.2,0,0.4,0.1,0.5s0.2,0.3,0.3,0.4s0.3,0.2,0.4,0.2
	c0.2,0,0.4,0.1,0.6,0.1h0.5v-2.3c-0.1,0-0.2,0-0.2,0C879.4,1799.3,879.3,1799.3,879.2,1799.3z M889.9,1802.4h-2.7v3.1h-1.5v-7.3h1.5
	v3h2.7v-3h1.5v7.3h-1.5V1802.4z M896.6,1803.8h-2.3l-0.6,1.6h-1.5l2.7-7.4h1.1l2.7,7.4h-1.5L896.6,1803.8z M894.7,1802.7h1.6
	l-0.6-1.6l-0.2-1.1h-0.1l-0.2,1.1L894.7,1802.7z M904.2,1799.4H902v6.1h-1.5v-6.1h-2.2v-1.2h5.8L904.2,1799.4L904.2,1799.4z
	 M910.1,1805.5h-1.5v-2.9l-0.8,0.2l-1.6,2.7h-1.7l1.5-2.5l0.6-0.4c-0.2-0.1-0.4-0.1-0.6-0.3c-0.2-0.1-0.4-0.3-0.5-0.4
	c-0.2-0.2-0.3-0.4-0.4-0.6c-0.1-0.2-0.1-0.5-0.1-0.8c0-0.4,0.1-0.8,0.2-1.1c0.2-0.3,0.4-0.5,0.7-0.7c0.3-0.2,0.6-0.3,1-0.4
	c0.4-0.1,0.8-0.1,1.3-0.1c0.1,0,0.3,0,0.4,0c0.2,0,0.3,0,0.5,0c0.2,0,0.3,0,0.5,0.1c0.2,0,0.3,0,0.4,0.1v7.2L910.1,1805.5
	L910.1,1805.5z M908,1799.3c-0.2,0-0.4,0-0.5,0.1c-0.2,0-0.3,0.1-0.4,0.2c-0.1,0.1-0.2,0.2-0.3,0.3s-0.1,0.3-0.1,0.6
	c0,0.2,0,0.4,0.1,0.5s0.2,0.3,0.3,0.4c0.1,0.1,0.3,0.2,0.4,0.2c0.2,0,0.4,0.1,0.6,0.1h0.5v-2.3c-0.1,0-0.2,0-0.2,0
	C908.3,1799.3,908.2,1799.3,908,1799.3z M914.7,1798.1h1.4v3.3l0.4-0.1l1.6-3.1h1.6l-1.7,3.2l-0.5,0.3l0.6,0.4l2,3.3h-1.8l-1.7-3.2
	h-0.4v3.2h-1.4v-3.2l-0.4,0.1l-1.7,3.2H911l2-3.2l0.6-0.4l-0.6-0.4l-1.8-3.3h1.7l1.6,3.1h0.4v-3.1L914.7,1798.1L914.7,1798.1z
	 M925.1,1802.4h-2.7v3.1h-1.5v-7.3h1.5v3h2.7v-3h1.5v7.3h-1.5V1802.4z M928,1798.1h1.5v2.7c0.1,0,0.2,0,0.4-0.1c0.2,0,0.3,0,0.5,0
	c0.4,0,0.7,0,1,0.1s0.6,0.2,0.9,0.4c0.2,0.2,0.4,0.4,0.6,0.7c0.1,0.3,0.2,0.7,0.2,1.1c0,0.8-0.3,1.5-0.8,2c-0.5,0.4-1.3,0.6-2.3,0.6
	c-0.1,0-0.2,0-0.4,0c-0.2,0-0.3,0-0.5,0c-0.2,0-0.4,0-0.6-0.1c-0.2-0.1-0.4-0.1-0.5-0.1L928,1798.1L928,1798.1z M930.1,1804.2
	c0.4,0,0.7-0.1,1-0.3c0.3-0.2,0.4-0.5,0.4-0.9c0-0.2,0-0.4-0.1-0.6c-0.1-0.1-0.2-0.3-0.3-0.3s-0.3-0.1-0.4-0.2c-0.2,0-0.3,0-0.5,0
	c-0.1,0-0.2,0-0.4,0c-0.1,0-0.2,0-0.3,0.1v2.1c0.1,0,0.2,0,0.3,0C929.9,1804.2,930,1804.2,930.1,1804.2z M933.8,1798.1h1.5v7.3h-1.5
	V1798.1z M938.7,1801.8l-2.1-3.6h1.8l1.2,2.1l0.3,0.7l0.2-0.7l1.2-2.1h1.6l-2.2,3.5l2.3,3.8h-1.8l-1.3-2.3l-0.3-0.8l-0.3,0.8
	l-1.3,2.3h-1.6L938.7,1801.8z M950.8,1799.4h-2.6v6.1h-1.5v-7.3h5.6v7.3h-1.5V1799.4L950.8,1799.4z M953.5,1801.8
	c0-1.2,0.3-2.1,0.8-2.8c0.5-0.6,1.3-1,2.4-1c0.5,0,1,0.1,1.4,0.3c0.4,0.2,0.7,0.4,1,0.8c0.3,0.3,0.5,0.7,0.6,1.2
	c0.1,0.5,0.2,1,0.2,1.5c0,1.2-0.3,2.1-0.8,2.8c-0.6,0.6-1.3,1-2.3,1c-0.5,0-1-0.1-1.4-0.3c-0.4-0.2-0.7-0.4-1-0.8
	c-0.3-0.4-0.5-0.7-0.6-1.2C953.5,1802.9,953.5,1802.4,953.5,1801.8z M955.1,1801.8c0,0.4,0,0.7,0.1,1c0.1,0.3,0.2,0.6,0.3,0.8
	c0.1,0.2,0.3,0.4,0.5,0.5c0.2,0.1,0.5,0.2,0.7,0.2c0.5,0,0.9-0.2,1.2-0.6c0.3-0.4,0.4-1,0.4-2c0-0.3,0-0.7-0.1-1s-0.2-0.6-0.3-0.8
	c-0.1-0.2-0.3-0.4-0.5-0.5c-0.2-0.1-0.5-0.2-0.8-0.2c-0.5,0-0.9,0.2-1.2,0.6C955.3,1800.2,955.1,1800.9,955.1,1801.8z M966.1,1799.4
	h-2.2v6.1h-1.5v-6.1h-2.1v-1.2h5.8V1799.4z M966.4,1801.8c0-1.2,0.3-2.1,0.8-2.8c0.5-0.6,1.3-1,2.4-1c0.5,0,1,0.1,1.4,0.3
	c0.4,0.2,0.7,0.4,1,0.8c0.3,0.3,0.5,0.7,0.6,1.2c0.1,0.5,0.2,1,0.2,1.5c0,1.2-0.3,2.1-0.8,2.8c-0.6,0.6-1.3,1-2.3,1
	c-0.5,0-1-0.1-1.4-0.3c-0.4-0.2-0.7-0.4-1-0.8s-0.5-0.7-0.6-1.2C966.5,1802.9,966.4,1802.4,966.4,1801.8z M968,1801.8
	c0,0.4,0,0.7,0.1,1c0.1,0.3,0.2,0.6,0.3,0.8c0.1,0.2,0.3,0.4,0.5,0.5c0.2,0.1,0.5,0.2,0.7,0.2c0.5,0,0.9-0.2,1.2-0.6
	c0.3-0.4,0.4-1,0.4-2c0-0.3,0-0.7-0.1-1c-0.1-0.3-0.2-0.6-0.3-0.8c-0.1-0.2-0.3-0.4-0.5-0.5c-0.2-0.1-0.5-0.2-0.8-0.2
	c-0.5,0-0.9,0.2-1.2,0.6C968.1,1800.2,968,1800.9,968,1801.8z M977.9,1799.4h-1.6c0,0.6-0.1,1.2-0.1,1.9c0,0.5-0.1,1-0.1,1.4
	c-0.1,0.4-0.1,0.8-0.2,1.1c-0.1,0.3-0.2,0.6-0.4,0.8c-0.1,0.2-0.2,0.3-0.3,0.4s-0.3,0.2-0.4,0.2c-0.1,0.1-0.3,0.1-0.4,0.1
	s-0.3,0-0.4,0c-0.2,0-0.3,0-0.4,0s-0.2-0.1-0.3-0.1l0.2-1.2h0.1h0.1c0.1,0,0.2,0,0.3-0.1s0.2-0.1,0.3-0.3c0.1-0.1,0.2-0.4,0.3-0.7
	c0.1-0.3,0.1-0.7,0.2-1.1c0.1-0.4,0.1-1,0.1-1.6s0.1-1.3,0.1-2.3h4.4v7.3h-1.5V1799.4L977.9,1799.4z M982.7,1802.3h-0.4v3.1h-1.5
	v-7.3h1.5v3.3l0.3-0.1l2.1-3.1h1.7l-2.2,3.1l-0.6,0.4l0.6,0.4l2.5,3.5H985L982.7,1802.3z M987.2,1801.8c0-1.2,0.3-2.1,0.8-2.8
	c0.5-0.6,1.3-1,2.4-1c0.5,0,1,0.1,1.4,0.3c0.4,0.2,0.7,0.4,1,0.8c0.3,0.3,0.5,0.7,0.6,1.2c0.1,0.5,0.2,1,0.2,1.5
	c0,1.2-0.3,2.1-0.8,2.8c-0.6,0.6-1.3,1-2.3,1c-0.5,0-1-0.1-1.4-0.3c-0.4-0.2-0.7-0.4-1-0.8c-0.3-0.3-0.5-0.7-0.6-1.2
	C987.2,1802.9,987.2,1802.4,987.2,1801.8z M988.8,1801.8c0,0.4,0,0.7,0.1,1c0.1,0.3,0.2,0.6,0.3,0.8c0.1,0.2,0.3,0.4,0.5,0.5
	c0.2,0.1,0.5,0.2,0.7,0.2c0.5,0,0.9-0.2,1.2-0.6c0.3-0.4,0.4-1,0.4-2c0-0.3,0-0.7-0.1-1s-0.2-0.6-0.3-0.8c-0.1-0.2-0.3-0.4-0.5-0.5
	c-0.2-0.1-0.5-0.2-0.8-0.2c-0.5,0-0.9,0.2-1.2,0.6C989,1800.2,988.8,1800.9,988.8,1801.8z M999.9,1799.8c0,0.2,0,0.4-0.1,0.5
	c0,0.2-0.1,0.3-0.2,0.5c-0.1,0.1-0.2,0.3-0.4,0.4c-0.2,0.1-0.4,0.2-0.6,0.2v0.1c0.2,0,0.4,0.1,0.6,0.2c0.2,0.1,0.4,0.2,0.5,0.3
	s0.3,0.3,0.3,0.5c0.1,0.2,0.1,0.4,0.1,0.7c0,0.4-0.1,0.7-0.2,1c-0.2,0.3-0.4,0.5-0.7,0.7c-0.3,0.2-0.6,0.3-0.9,0.4
	c-0.3,0.1-0.7,0.1-1.1,0.1c-0.1,0-0.3,0-0.5,0c-0.2,0-0.4,0-0.6,0c-0.2,0-0.4,0-0.7,0c-0.2,0-0.4-0.1-0.6-0.1v-7.2
	c0.1,0,0.3,0,0.5-0.1c0.2,0,0.4,0,0.6-0.1c0.2,0,0.4,0,0.6,0c0.2,0,0.4,0,0.6,0c0.3,0,0.7,0,1,0.1s0.6,0.1,0.9,0.3
	c0.3,0.1,0.5,0.3,0.6,0.5C999.9,1799.2,999.9,1799.5,999.9,1799.8z M996.8,1801.2c0.1,0,0.2,0,0.3,0s0.2,0,0.3,0
	c0.3-0.1,0.5-0.2,0.7-0.4c0.2-0.2,0.3-0.4,0.3-0.6c0-0.2,0-0.3-0.1-0.4c-0.1-0.1-0.2-0.2-0.3-0.3c-0.1-0.1-0.3-0.1-0.4-0.1
	c-0.2,0-0.3,0-0.5,0c-0.2,0-0.4,0-0.5,0c-0.2,0-0.3,0-0.4,0v2h0.6L996.8,1801.2L996.8,1801.2z M997.3,1804.3c0.2,0,0.3,0,0.5-0.1
	c0.2,0,0.3-0.1,0.4-0.2c0.1-0.1,0.2-0.2,0.3-0.3c0.1-0.1,0.1-0.3,0.1-0.5c0-0.2,0-0.4-0.1-0.5c-0.1-0.1-0.2-0.2-0.4-0.3
	c-0.1-0.1-0.3-0.1-0.5-0.1c-0.2,0-0.4,0-0.5,0h-0.8v2c0,0,0.1,0,0.2,0c0.1,0,0.2,0,0.2,0s0.2,0,0.3,0
	C997.1,1804.3,997.2,1804.3,997.3,1804.3z"/>
</svg>
