<?xml version="1.0" encoding="utf-8"?>
<!-- Generator: Adobe Illustrator 17.1.0, SVG Export Plug-In . SVG Version: 6.00 Build 0)  -->
<!DOCTYPE svg PUBLIC "-//W3C//DTD SVG 1.1//EN" "http://www.w3.org/Graphics/SVG/1.1/DTD/svg11.dtd">
<svg version="1.1" id="Layer_1" xmlns="http://www.w3.org/2000/svg" xmlns:xlink="http://www.w3.org/1999/xlink" x="0px" y="0px"
	 viewBox="788.9 1365.4 211 40" enable-background="new 788.9 1365.4 211 40" xml:space="preserve">
<path id="logo" fill="#E03A3A" d="M806,1396.6l-17.1-20.7l8.6-10.4h14.3c0,0-13.7,9.4,0.8,16.2
	C822.1,1386.1,806.1,1396.2,806,1396.6z M829,1365.5h-7.7c0-0.1-16,8.3-3.9,12c15.6,6.4-8.3,23-8.2,23.1l3.9,4.8l24.4-29.5
	L829,1365.5z"/>
<path id="brand" fill="#FFFFFF" d="M842.2,1385.8c0.2,0,0.3,0.1,0.6,0.4c0.7,0.7,1.5,1.3,2.4,1.8c1,0.4,1.9,0.7,2.8,0.7
	c1,0,1.6-0.3,1.6-1c0-0.4-0.2-0.9-0.5-1.4c-0.4-0.5-1.2-1.5-2.6-3c-1.7-1.9-2.9-3.3-3.5-4.2c-0.8-1.2-1.1-2.4-1.1-3.4
	c0-1.6,0.7-3,2.2-4c1.4-1,3.2-1.5,5.3-1.5c1.5,0,2.8,0.3,4,0.9c0.4,0.1,0.8,0.3,1.2,0.6c0.3,0.3,0.5,0.6,0.5,0.8
	c0,0.1,0,0.2-0.1,0.3s-0.2,0.1-0.3,0.1c-0.2,0-0.4-0.1-0.7-0.4c-0.5-0.5-1.1-0.8-1.9-1.1c-0.8-0.3-1.5-0.4-2.2-0.4
	c-0.4,0-0.8,0.1-1.1,0.3c-0.3,0.2-0.4,0.4-0.4,0.7c0,0.4,0.2,0.8,0.5,1.3c0.3,0.5,0.9,1.2,1.8,2.1c2.6,2.8,4.2,4.7,4.8,5.7
	c0.6,1,0.9,2,0.9,3c0,0.8-0.2,1.6-0.7,2.3c-0.4,0.7-1,1.3-1.8,1.8c-1.5,0.9-3.3,1.3-5.4,1.3c-1.9,0-3.7-0.5-5.1-1.5
	c-1-0.7-1.6-1.3-1.6-1.7c0-0.1,0-0.2,0.1-0.3C842,1385.8,842.1,1385.8,842.2,1385.8z M870.3,1369.9c1.4,0,2.7,0.3,4,0.9
	c1.9,0.9,3.4,2.2,4.4,4.1c0.8,1.5,1.2,3.1,1.2,4.8c0,1.4-0.3,2.7-0.9,4c-0.9,1.9-2.3,3.4-4.3,4.4c-1.4,0.9-2.9,1.2-4.4,1.2
	c-1.6,0-3.2-0.4-4.7-1.3c-2-1.1-3.4-2.7-4.2-4.7c-0.5-1.2-0.8-2.5-0.8-3.8c0-1.6,0.4-3.2,1.2-4.7c1-1.8,2.4-3.2,4.3-4.1
	C867.5,1370.3,868.8,1370,870.3,1369.9z M869.2,1370.8l-0.1,8.7l0.1,7.3v1.6c0.3,0.1,0.6,0.1,0.9,0.1c2,0,3.7-0.5,5.2-1.6
	c1.4-1,2.4-2.3,3.1-3.9c0.4-1.1,0.7-2.2,0.7-3.4c0-1.6-0.4-3-1.1-4.3c-0.9-1.6-2.2-2.9-3.9-3.6c-1.2-0.6-2.5-0.9-3.9-0.9
	C869.9,1370.8,869.6,1370.8,869.2,1370.8z M893,1376.4v3.2l0.1,8.6v0.6H885l0.1-10l-0.1-8.3h14.1c0.6,0,1,0,1.1,0
	c0.2,0.1,0.3,0.2,0.3,0.4c0,0.3-0.2,0.5-0.6,0.5h-0.1l-6.7-0.1l-0.1,4.2h1.4l4.6-0.1h1c0.4,0,0.6,0,0.7,0.1s0.2,0.2,0.2,0.4
	c0,0.3-0.3,0.5-0.9,0.5h-1L893,1376.4L893,1376.4z M913.5,1376.4v3.2l0.1,8.6v0.6h-8.1l0.1-10l-0.1-8.3h14.1c0.6,0,1,0,1.1,0
	c0.2,0.1,0.3,0.2,0.3,0.4c0,0.3-0.2,0.5-0.6,0.5h-0.1l-6.7-0.1l-0.1,4.2h1.4l4.6-0.1h1c0.4,0,0.6,0,0.7,0.1c0.1,0.1,0.2,0.2,0.2,0.4
	c0,0.3-0.3,0.5-0.9,0.5h-1L913.5,1376.4L913.5,1376.4z M934.2,1370.5v0.9l-0.1,7.3l0.1,10h-8.1l0.1-11l-0.1-6.7v-0.7h8.1V1370.5z
	 M952,1371.4l-0.1,4.2v4v9.2h-8.1l0.1-10.7v-3.6v-3.1h-1.8l-2.5,0.1h-0.4c-0.4,0-0.6-0.2-0.6-0.5s0.1-0.4,0.4-0.5c0.1,0,0.3,0,0.7,0
	h16.4c0.6,0,0.9,0,1,0.1c0.2,0.1,0.3,0.2,0.3,0.5s-0.2,0.5-0.7,0.5h-1.2l-3.1-0.1h-0.3L952,1371.4L952,1371.4z M973.6,1371.4
	l-0.1,4.2v4v9.2h-8.1l0.1-10.7v-3.6v-3.1h-1.8l-2.5,0.1h-0.4c-0.4,0-0.6-0.2-0.6-0.5s0.1-0.4,0.4-0.5c0.1,0,0.3,0,0.7,0h16.4
	c0.6,0,0.9,0,1,0.1c0.2,0.1,0.3,0.2,0.3,0.5s-0.2,0.5-0.7,0.5h-1.2l-3.1-0.1h-0.3L973.6,1371.4L973.6,1371.4z M990.3,1369.9
	c1.4,0,2.7,0.3,4,0.9c1.9,0.9,3.4,2.2,4.4,4.1c0.8,1.5,1.2,3.1,1.2,4.8c0,1.4-0.3,2.7-0.9,4c-0.9,1.9-2.3,3.4-4.3,4.4
	c-1.4,0.7-2.9,1.1-4.5,1.1c-1.6,0-3.2-0.4-4.7-1.3c-2-1.1-3.4-2.7-4.2-4.7c-0.5-1.2-0.8-2.5-0.8-3.8c0-1.6,0.4-3.2,1.2-4.7
	c1-1.8,2.4-3.2,4.3-4.1C987.5,1370.3,988.9,1370,990.3,1369.9z M989.3,1370.8l-0.1,8.7l0.1,7.3v1.6c0.3,0.1,0.6,0.1,0.9,0.1
	c2,0,3.7-0.5,5.2-1.6c1.4-1,2.4-2.3,3.1-3.9c0.4-1.1,0.7-2.2,0.7-3.4c0-1.6-0.4-3-1.1-4.3c-0.9-1.6-2.2-2.9-3.9-3.6
	c-1.2-0.6-2.5-0.9-3.9-0.9C989.9,1370.8,989.6,1370.8,989.3,1370.8z"/>
<path id="sign" fill="#FFFFFF" d="M847.2,1400.2c-0.2,0.2-0.5,0.3-0.9,0.3c-0.4,0.1-0.7,0.1-1.1,0.1c-0.4,0-0.9-0.1-1.3-0.2
	s-0.8-0.3-1.1-0.6c-0.3-0.3-0.6-0.7-0.7-1.2c-0.2-0.5-0.3-1-0.3-1.7s0.1-1.3,0.3-1.9s0.5-0.9,0.8-1.1c0.3-0.3,0.7-0.5,1.1-0.6
	c0.4-0.1,0.8-0.2,1.2-0.2s0.8,0,1.1,0.1s0.5,0.1,0.7,0.2l-0.3,1.2c-0.2-0.1-0.4-0.1-0.6-0.2c-0.2,0-0.5-0.1-0.8-0.1
	c-0.6,0-1.1,0.2-1.4,0.6c-0.4,0.4-0.5,1-0.5,2c0,0.4,0,0.7,0.1,1c0.1,0.3,0.2,0.6,0.4,0.8c0.2,0.2,0.4,0.4,0.7,0.5
	c0.3,0.1,0.6,0.2,0.9,0.2c0.3,0,0.6,0,0.8-0.1s0.4-0.1,0.6-0.2L847.2,1400.2z M853.6,1394.4h-2.2v6.1h-1.5v-6.1h-2.2v-1.2h5.8v1.2
	H853.6z M857.4,1396.4l0.2,0.9h0.1l0.2-1l1.1-3.2h1.4l-2,5c-0.2,0.4-0.3,0.7-0.5,1c-0.1,0.3-0.3,0.5-0.5,0.7
	c-0.2,0.2-0.4,0.3-0.6,0.4c-0.2,0.1-0.4,0.1-0.7,0.1c-0.2,0-0.4,0-0.6,0c-0.1,0-0.3-0.1-0.5-0.2l0.4-1.1c0.1,0.1,0.2,0.1,0.3,0.1
	c0.1,0,0.2,0,0.3,0c0.3,0,0.6-0.3,0.7-0.8l-2.8-5.3h1.7L857.4,1396.4z M867.6,1401.7h-1l-0.2-1.3h-4.8l-0.2,1.3h-1v-2.6h0.8
	c0-0.1,0.1-0.2,0.2-0.5c0.1-0.3,0.2-0.6,0.3-1.1s0.2-1.1,0.3-1.9c0.1-0.7,0.1-1.6,0.1-2.6h4.5v6.1h1L867.6,1401.7L867.6,1401.7z
	 M865.1,1399.1v-4.8h-1.7c0,1.2-0.1,2.3-0.3,3.1c-0.2,0.8-0.3,1.3-0.5,1.7H865.1z M873,1396.4l0.1-0.9H873l-0.5,1l-2.8,4h-1.1v-7.3
	h1.5v4l-0.1,1h0.1l0.5-1l2.8-4h1.1v7.3H873V1396.4z M880.9,1400.4h-1.5v-2.9l-0.8,0.2l-1.6,2.7h-1.7l1.5-2.5l0.6-0.4
	c-0.2-0.1-0.4-0.1-0.6-0.3c-0.2-0.1-0.4-0.3-0.5-0.4c-0.2-0.2-0.3-0.4-0.4-0.6c-0.1-0.2-0.1-0.5-0.1-0.8c0-0.4,0.1-0.8,0.2-1.1
	c0.2-0.3,0.4-0.5,0.7-0.7c0.3-0.2,0.6-0.3,1-0.4c0.4-0.1,0.8-0.1,1.3-0.1c0.1,0,0.3,0,0.4,0c0.2,0,0.3,0,0.5,0c0.2,0,0.3,0,0.5,0.1
	c0.2,0,0.3,0,0.4,0.1v7.2L880.9,1400.4L880.9,1400.4z M878.9,1394.3c-0.2,0-0.4,0-0.5,0.1c-0.2,0-0.3,0.1-0.4,0.2
	c-0.1,0.1-0.2,0.2-0.3,0.3c-0.2,0.1-0.2,0.3-0.2,0.5c0,0.2,0,0.4,0.1,0.5c0.1,0.1,0.2,0.3,0.3,0.4s0.3,0.2,0.4,0.2
	c0.2,0,0.4,0.1,0.6,0.1h0.5v-2.3c-0.1,0-0.2,0-0.2,0C879.1,1394.3,879,1394.3,878.9,1394.3z M889.6,1397.4h-2.7v3.1h-1.5v-7.3h1.5v3
	h2.7v-3h1.5v7.3h-1.5V1397.4z M896.3,1398.8H894l-0.6,1.6h-1.5l2.7-7.4h1.1l2.7,7.4h-1.5L896.3,1398.8z M894.4,1397.7h1.6l-0.6-1.6
	l-0.2-1.1h-0.1l-0.2,1.1L894.4,1397.7z M903.9,1394.4h-2.2v6.1h-1.5v-6.1H898v-1.2h5.8v1.2H903.9z M909.8,1400.4h-1.5v-2.9l-0.8,0.2
	l-1.6,2.7h-1.7l1.5-2.5l0.6-0.4c-0.2-0.1-0.4-0.1-0.6-0.3c-0.2-0.1-0.4-0.3-0.5-0.4c-0.2-0.2-0.3-0.4-0.4-0.6
	c-0.1-0.2-0.1-0.5-0.1-0.8c0-0.4,0.1-0.8,0.2-1.1c0.2-0.3,0.4-0.5,0.7-0.7c0.3-0.2,0.6-0.3,1-0.4c0.4-0.1,0.8-0.1,1.3-0.1
	c0.1,0,0.3,0,0.4,0c0.2,0,0.3,0,0.5,0c0.2,0,0.3,0,0.5,0.1c0.2,0,0.3,0,0.4,0.1L909.8,1400.4L909.8,1400.4L909.8,1400.4z
	 M907.7,1394.3c-0.2,0-0.4,0-0.5,0.1c-0.2,0-0.3,0.1-0.4,0.2c-0.1,0.1-0.2,0.2-0.3,0.3c-0.1,0.1-0.1,0.3-0.1,0.6
	c0,0.2,0,0.4,0.1,0.5c0.1,0.1,0.2,0.3,0.3,0.4s0.3,0.2,0.4,0.2c0.2,0,0.4,0.1,0.6,0.1h0.5v-2.3c-0.1,0-0.2,0-0.2,0
	C908,1394.3,907.9,1394.3,907.7,1394.3z M914.4,1393.1h1.4v3.3l0.4-0.1l1.6-3.1h1.6l-1.7,3.2l-0.5,0.3l0.6,0.4l2,3.3H918l-1.7-3.2
	h-0.4v3.2h-1.4v-3.2l-0.4,0.1l-1.7,3.2h-1.7l2-3.2l0.6-0.4l-0.6-0.4l-1.8-3.3h1.7l1.6,3.1h0.4v-3.1L914.4,1393.1L914.4,1393.1z
	 M924.8,1397.4h-2.7v3.1h-1.5v-7.3h1.5v3h2.7v-3h1.5v7.3h-1.5V1397.4z M927.7,1393.1h1.5v2.7c0.1,0,0.2,0,0.4-0.1c0.2,0,0.3,0,0.5,0
	c0.4,0,0.7,0,1,0.1c0.3,0.1,0.6,0.2,0.9,0.4c0.2,0.2,0.4,0.4,0.6,0.7c0.1,0.3,0.2,0.7,0.2,1.1c0,0.8-0.3,1.5-0.8,2
	c-0.5,0.4-1.3,0.6-2.3,0.6c-0.1,0-0.2,0-0.4,0c-0.2,0-0.3,0-0.5,0c-0.2,0-0.4,0-0.6-0.1s-0.4-0.1-0.5-0.1L927.7,1393.1L927.7,1393.1
	z M929.8,1399.2c0.4,0,0.7-0.1,1-0.3c0.3-0.2,0.4-0.5,0.4-0.9c0-0.2,0-0.4-0.1-0.6c-0.1-0.1-0.2-0.3-0.3-0.3s-0.3-0.1-0.4-0.2
	c-0.2,0-0.3,0-0.5,0c-0.1,0-0.2,0-0.4,0c-0.1,0-0.2,0-0.3,0.1v2.1c0.1,0,0.2,0,0.3,0C929.6,1399.2,929.7,1399.2,929.8,1399.2z
	 M933.5,1393.1h1.5v7.3h-1.5V1393.1z M938.4,1396.8l-2.1-3.6h1.8l1.2,2.1l0.3,0.7l0.2-0.7l1.2-2.1h1.6l-2.2,3.5l2.3,3.8h-1.8
	l-1.3-2.3l-0.3-0.8l-0.3,0.8l-1.3,2.3h-1.6L938.4,1396.8z M950.5,1394.4h-2.6v6.1h-1.5v-7.3h5.6v7.3h-1.5V1394.4L950.5,1394.4z
	 M953.2,1396.8c0-1.2,0.3-2.1,0.8-2.8c0.5-0.6,1.3-1,2.4-1c0.5,0,1,0.1,1.4,0.3c0.4,0.2,0.7,0.4,1,0.8c0.3,0.3,0.5,0.7,0.6,1.2
	c0.1,0.5,0.2,1,0.2,1.5c0,1.2-0.3,2.1-0.8,2.8c-0.6,0.6-1.3,1-2.3,1c-0.5,0-1-0.1-1.4-0.3c-0.4-0.2-0.7-0.4-1-0.8
	c-0.3-0.4-0.5-0.7-0.6-1.2C953.2,1397.9,953.2,1397.4,953.2,1396.8z M954.8,1396.8c0,0.4,0,0.7,0.1,1c0.1,0.3,0.2,0.6,0.3,0.8
	c0.1,0.2,0.3,0.4,0.5,0.5c0.2,0.1,0.5,0.2,0.7,0.2c0.5,0,0.9-0.2,1.2-0.6c0.3-0.4,0.4-1,0.4-2c0-0.3,0-0.7-0.1-1
	c-0.1-0.3-0.2-0.6-0.3-0.8c-0.1-0.2-0.3-0.4-0.5-0.5c-0.2-0.1-0.5-0.2-0.8-0.2c-0.5,0-0.9,0.2-1.2,0.6
	C955,1395.2,954.8,1395.9,954.8,1396.8z M965.8,1394.4h-2.2v6.1h-1.5v-6.1H960v-1.2h5.8V1394.4z M966.1,1396.8
	c0-1.2,0.3-2.1,0.8-2.8c0.5-0.6,1.3-1,2.4-1c0.5,0,1,0.1,1.4,0.3c0.4,0.2,0.7,0.4,1,0.8c0.3,0.3,0.5,0.7,0.6,1.2
	c0.1,0.5,0.2,1,0.2,1.5c0,1.2-0.3,2.1-0.8,2.8c-0.6,0.6-1.3,1-2.3,1c-0.5,0-1-0.1-1.4-0.3c-0.4-0.2-0.7-0.4-1-0.8
	c-0.3-0.4-0.5-0.7-0.6-1.2C966.2,1397.9,966.1,1397.4,966.1,1396.8z M967.7,1396.8c0,0.4,0,0.7,0.1,1c0.1,0.3,0.2,0.6,0.3,0.8
	s0.3,0.4,0.5,0.5c0.2,0.1,0.5,0.2,0.7,0.2c0.5,0,0.9-0.2,1.2-0.6c0.3-0.4,0.4-1,0.4-2c0-0.3,0-0.7-0.1-1c-0.1-0.3-0.2-0.6-0.3-0.8
	c-0.1-0.2-0.3-0.4-0.5-0.5c-0.2-0.1-0.5-0.2-0.8-0.2c-0.5,0-0.9,0.2-1.2,0.6C967.8,1395.2,967.7,1395.9,967.7,1396.8z M977.7,1394.4
	h-1.6c0,0.6-0.1,1.2-0.1,1.9c0,0.5-0.1,1-0.1,1.4c-0.1,0.4-0.1,0.8-0.2,1.1c-0.1,0.3-0.2,0.6-0.4,0.8c-0.1,0.2-0.2,0.3-0.3,0.4
	c-0.1,0.1-0.3,0.2-0.4,0.2c-0.1,0.1-0.3,0.1-0.4,0.1c-0.1,0-0.3,0-0.4,0c-0.2,0-0.3,0-0.4,0c-0.1,0-0.2-0.1-0.3-0.1l0.2-1.2h0.1h0.1
	c0.1,0,0.2,0,0.3-0.1c0.1-0.1,0.2-0.1,0.3-0.3c0.1-0.1,0.2-0.4,0.3-0.7c0.1-0.3,0.1-0.7,0.2-1.1c0.1-0.4,0.1-1,0.1-1.6
	s0.1-1.3,0.1-2.3h4.4v7.3h-1.5L977.7,1394.4L977.7,1394.4z M982.5,1397.3h-0.4v3.1h-1.5v-7.3h1.5v3.3l0.3-0.1l2.1-3.1h1.7l-2.2,3.1
	l-0.6,0.4l0.6,0.4l2.5,3.5h-1.8L982.5,1397.3z M987,1396.8c0-1.2,0.3-2.1,0.8-2.8c0.5-0.6,1.3-1,2.4-1c0.5,0,1,0.1,1.4,0.3
	c0.4,0.2,0.7,0.4,1,0.8c0.3,0.3,0.5,0.7,0.6,1.2s0.2,1,0.2,1.5c0,1.2-0.3,2.1-0.8,2.8c-0.6,0.6-1.3,1-2.3,1c-0.5,0-1-0.1-1.4-0.3
	c-0.4-0.2-0.7-0.4-1-0.8c-0.3-0.3-0.5-0.7-0.6-1.2C987,1397.9,987,1397.4,987,1396.8z M988.6,1396.8c0,0.4,0,0.7,0.1,1
	c0.1,0.3,0.2,0.6,0.3,0.8c0.1,0.2,0.3,0.4,0.5,0.5c0.2,0.1,0.5,0.2,0.7,0.2c0.5,0,0.9-0.2,1.2-0.6c0.3-0.4,0.4-1,0.4-2
	c0-0.3,0-0.7-0.1-1c-0.1-0.3-0.2-0.6-0.3-0.8c-0.1-0.2-0.3-0.4-0.5-0.5c-0.2-0.1-0.5-0.2-0.8-0.2c-0.5,0-0.9,0.2-1.2,0.6
	C988.8,1395.2,988.6,1395.9,988.6,1396.8z M999.7,1394.8c0,0.2,0,0.4-0.1,0.5c0,0.2-0.1,0.3-0.2,0.5c-0.1,0.1-0.2,0.3-0.4,0.4
	s-0.4,0.2-0.6,0.2v0.1c0.2,0,0.4,0.1,0.6,0.2c0.2,0.1,0.4,0.2,0.5,0.3s0.3,0.3,0.3,0.5c0.1,0.2,0.1,0.4,0.1,0.7c0,0.4-0.1,0.7-0.2,1
	c-0.2,0.3-0.4,0.5-0.7,0.7c-0.3,0.2-0.6,0.3-0.9,0.4c-0.3,0.1-0.7,0.1-1.1,0.1c-0.1,0-0.3,0-0.5,0c-0.2,0-0.4,0-0.6,0
	c-0.2,0-0.4,0-0.7,0c-0.2,0-0.4-0.1-0.6-0.1v-7.2c0.1,0,0.3,0,0.5-0.1c0.2,0,0.4,0,0.6-0.1c0.2,0,0.4,0,0.6,0c0.2,0,0.4,0,0.6,0
	c0.3,0,0.7,0,1,0.1c0.3,0.1,0.6,0.1,0.9,0.3c0.3,0.1,0.5,0.3,0.6,0.5C999.7,1394.2,999.7,1394.5,999.7,1394.8z M996.6,1396.2
	c0.1,0,0.2,0,0.3,0c0.1,0,0.2,0,0.3,0c0.3-0.1,0.5-0.2,0.7-0.4c0.2-0.2,0.3-0.4,0.3-0.6s0-0.3-0.1-0.4s-0.2-0.2-0.3-0.3
	c-0.1-0.1-0.3-0.1-0.4-0.1c-0.2,0-0.3,0-0.5,0c-0.2,0-0.4,0-0.5,0c-0.2,0-0.3,0-0.4,0v2h0.6L996.6,1396.2L996.6,1396.2z
	 M997.1,1399.3c0.2,0,0.3,0,0.5-0.1c0.2,0,0.3-0.1,0.4-0.2c0.1-0.1,0.2-0.2,0.3-0.3c0.1-0.1,0.1-0.3,0.1-0.5c0-0.2,0-0.4-0.1-0.5
	c-0.1-0.1-0.2-0.2-0.4-0.3c-0.1-0.1-0.3-0.1-0.5-0.1c-0.2,0-0.4,0-0.5,0h-0.8v2c0,0,0.1,0,0.2,0s0.2,0,0.2,0s0.2,0,0.3,0
	C996.9,1399.3,997,1399.3,997.1,1399.3z"/>
</svg>
