<?xml version="1.0" encoding="utf-8"?>
<!-- Generator: Adobe Illustrator 17.1.0, SVG Export Plug-In . SVG Version: 6.00 Build 0)  -->
<!DOCTYPE svg PUBLIC "-//W3C//DTD SVG 1.1//EN" "http://www.w3.org/Graphics/SVG/1.1/DTD/svg11.dtd">
<svg version="1.1" id="Capa_1" xmlns="http://www.w3.org/2000/svg" xmlns:xlink="http://www.w3.org/1999/xlink" x="0px" y="0px"
	 viewBox="234 226.7 44 58.7" enable-background="new 234 226.7 44 58.7" xml:space="preserve">
<circle fill="#FFFFFF" cx="256" cy="248.3" r="16.5"/>
<path fill="#E03A3A" d="M256,226.7c-12.1,0-22,9.9-22,22c0,4.9,1.6,9.5,4.4,13.2l17.6,23.5l17.6-23.5c2.8-3.7,4.4-8.2,4.4-13.2
	C278,236.5,268.1,226.7,256,226.7z M256,263.3c-8.1,0-14.7-6.6-14.7-14.7c0-8.1,6.6-14.7,14.7-14.7c8.1,0,14.7,6.6,14.7,14.7
	C270.7,256.8,264.1,263.3,256,263.3z"/>
<path id="logo" fill="#E03A3A" d="M252.4,256l-8.5-10.3l4.2-5.1h7.1c0,0-6.8,4.7,0.4,8C260.4,250.9,252.5,255.9,252.4,256z
	 M263.8,240.6H260c0,0-7.9,4.1-1.9,5.9c7.7,3.2-4.1,11.4-4.1,11.4l1.9,2.4l12.1-14.6L263.8,240.6z"/>
</svg>
