<?xml version="1.0" encoding="utf-8"?>
<!-- Generator: Adobe Illustrator 17.1.0, SVG Export Plug-In . SVG Version: 6.00 Build 0)  -->
<!DOCTYPE svg PUBLIC "-//W3C//DTD SVG 1.1//EN" "http://www.w3.org/Graphics/SVG/1.1/DTD/svg11.dtd">
<svg version="1.1" id="Capa_1" xmlns="http://www.w3.org/2000/svg" xmlns:xlink="http://www.w3.org/1999/xlink" x="0px" y="0px"
	 viewBox="0 0 1000 1000" enable-background="new 0 0 1000 1000" xml:space="preserve">
<g>
	<path fill="#FFFFFF" d="M181.4,133.6c-12.8,0-24.8,5-33.8,14c-18.7,18.7-18.7,49,0,67.7c9,9,21.1,14,33.8,14c12.8,0,24.8-5,33.8-14
		c18.7-18.7,18.7-49,0-67.7C206.3,138.6,194.2,133.6,181.4,133.6z M192.7,192.8c-3,3-7,4.7-11.3,4.7c-4.3,0-8.3-1.7-11.3-4.7
		c-6.2-6.2-6.2-16.3,0-22.6c3-3,7-4.7,11.3-4.7c4.3,0,8.3,1.7,11.3,4.7C198.9,176.4,198.9,186.5,192.7,192.8z"/>
	<path fill="#FFFFFF" d="M852.4,852.4c18.7-18.7,18.7-49,0-67.7c-9-9-21.1-14-33.8-14c-12.8,0-24.8,5-33.9,14
		c-18.7,18.7-18.7,49,0,67.7c9,9,21.1,14,33.8,14C831.3,866.4,843.3,861.4,852.4,852.4z M807.2,807.3c3-3,7-4.7,11.3-4.7
		c4.3,0,8.3,1.7,11.3,4.7c6.2,6.2,6.2,16.3,0,22.6c-3,3-7,4.7-11.3,4.7c-4.3,0-8.3-1.7-11.3-4.7C801,823.6,801,813.5,807.2,807.3z"
		/>
	<path fill="#FFFFFF" d="M270.6,488.7c3.1,3.1,7.2,4.7,11.3,4.7c4.1,0,8.2-1.6,11.3-4.7c6.2-6.2,6.2-16.3,0-22.6L38.5,211.6l173-173
		l112.8,112.8l-48.9,48.9c-6.2,6.2-6.2,16.3,0,22.6c3.1,3.1,7.2,4.7,11.3,4.7c4.1,0,8.2-1.6,11.3-4.7l48.9-48.9l42.7,42.7
		l-48.9,48.9c-6.2,6.2-6.2,16.3,0,22.6c3.1,3.1,7.2,4.7,11.3,4.7c4.1,0,8.2-1.6,11.3-4.7l48.9-48.9l42.7,42.7L406,330.8
		c-6.2,6.2-6.2,16.3,0,22.6c3.1,3.1,7.2,4.7,11.3,4.7c4.1,0,8.2-1.6,11.3-4.7l60.2-60.2c6.2-6.2,6.2-16.3,0-22.6L222.8,4.7
		c-6.2-6.2-16.3-6.2-22.6,0L4.7,200.3c-6.2,6.2-6.2,16.3,0,22.6L270.6,488.7z"/>
	<path fill="#FFFFFF" d="M729.4,511.3c-6.2-6.2-16.3-6.2-22.6,0l-60.2,60.2c-6.2,6.2-6.2,16.3,0,22.6c3.1,3.1,7.2,4.7,11.3,4.7
		c4.1,0,8.2-1.6,11.3-4.7l48.9-48.9l42.7,42.7l-48.9,48.9c-6.2,6.2-6.2,16.3,0,22.6c3.1,3.1,7.2,4.7,11.3,4.7s8.2-1.6,11.3-4.7
		l48.9-48.9l42.7,42.7L777.1,702c-6.2,6.2-6.2,16.3,0,22.6c3.1,3.1,7.2,4.7,11.3,4.7c4.1,0,8.2-1.6,11.3-4.7l48.9-48.9l112.8,112.8
		l-173,173L533.8,706.9c-6.2-6.2-16.3-6.2-22.6,0c-6.2,6.2-6.2,16.3,0,22.6l265.9,265.9c3.1,3.1,7.2,4.7,11.3,4.7
		c4.1,0,8.2-1.6,11.3-4.7l195.6-195.6c6.2-6.2,6.2-16.3,0-22.6L729.4,511.3z"/>
	<path fill="#FFFFFF" d="M845.4,327.6c0,0,131.3-131.3,131.3-131.3c31.1-31.1,31.1-81.7,0-112.8l-60.2-60.2
		c-31.1-31.1-81.7-31.1-112.8,0l-30.1,30.1c-6.2,6.2-6.2,16.3,0,22.6c6.2,6.2,16.3,6.2,22.6,0l30.1-30.1c18.7-18.7,49-18.7,67.7,0
		l60.2,60.2c18.7,18.7,18.7,49,0,67.7l-63.9,63.9L751,98.6c-6.2-6.2-16.3-6.2-22.6,0l-56,56c0,0-562.4,562.4-562.4,562.4
		c0,0-0.1,0.1-0.1,0.1c-0.1,0.1-0.3,0.3-0.4,0.4c-1.3,1.4-2.3,3-3,4.7L45.1,871.4c0,0.1,0,0.1-0.1,0.2L1.2,978
		c-2.5,6-1.1,12.8,3.5,17.4c3.1,3.1,7.1,4.7,11.3,4.7c2,0,4.1-0.4,6.1-1.2L128.5,955c0,0,0.1,0,0.1,0l149.2-61.4
		c1.7-0.7,3.3-1.7,4.7-3c0.1-0.1,0.3-0.2,0.4-0.4c0,0,0.1-0.1,0.1-0.1L845.4,327.6z M277.2,850.7c-4.3-7.3-9.6-14.2-15.7-20.3
		c-12.5-12.5-27.7-21.2-43.8-25.6l417-417c6.2-6.2,6.2-16.3,0-22.6c-6.2-6.2-16.3-6.2-22.6,0l-417,417
		c-4.4-16.1-13.1-31.3-25.6-43.8c-6.1-6.1-12.9-11.4-20.3-15.7l534.3-534.3l52.7,52.7l-63.9,63.9c-6.2,6.2-6.2,16.3,0,22.6
		c3.1,3.1,7.2,4.7,11.3,4.7c4.1,0,8.2-1.6,11.3-4.7l63.9-63.9l52.7,52.7L277.2,850.7z M126.3,921.4l-47.6-47.6l51.5-125.1
		c6.1,3.2,11.9,7.3,16.9,12.4c15.1,15.1,22.1,35.6,18.7,54.8c-0.9,5.1,0.8,10.4,4.4,14c3.7,3.7,8.9,5.3,14,4.4
		c19.2-3.4,39.7,3.6,54.8,18.7c5,5,9.2,10.8,12.4,16.9L126.3,921.4z M739.7,132.4l127.9,127.9l-33.5,33.5L706.2,165.9L739.7,132.4z
		 M65.5,905.7l28.8,28.8l-49,20.2L65.5,905.7z"/>
</g>
</svg>
