<?xml version="1.0" encoding="utf-8"?>
<!-- Generator: Adobe Illustrator 17.1.0, SVG Export Plug-In . SVG Version: 6.00 Build 0)  -->
<!DOCTYPE svg PUBLIC "-//W3C//DTD SVG 1.1//EN" "http://www.w3.org/Graphics/SVG/1.1/DTD/svg11.dtd">
<svg version="1.1" id="Capa_1" xmlns="http://www.w3.org/2000/svg" xmlns:xlink="http://www.w3.org/1999/xlink" x="0px" y="0px"
	 viewBox="491.5 485 17 30" enable-background="new 491.5 485 17 30" xml:space="preserve">
<g>
	<path fill="#FFFFFF" d="M506.3,485h-12.6c-1.2,0-2.2,1-2.2,2.2v25.6c0,1.2,1,2.2,2.2,2.2h12.6c1.2,0,2.2-1,2.2-2.2v-25.6
		C508.5,486,507.5,485,506.3,485z M496.9,486.3h6.2c0.2,0,0.3,0.2,0.3,0.5s-0.1,0.5-0.3,0.5h-6.2c-0.2,0-0.3-0.2-0.3-0.5
		C496.6,486.6,496.7,486.3,496.9,486.3z M500,512.8c-0.8,0-1.4-0.6-1.4-1.4s0.6-1.4,1.4-1.4c0.8,0,1.4,0.6,1.4,1.4
		S500.8,512.8,500,512.8z M506.9,508.1h-13.7v-19.4h13.7V508.1L506.9,508.1z"/>
</g>
</svg>
