<?xml version="1.0" encoding="utf-8"?>
<!-- Generator: Adobe Illustrator 17.1.0, SVG Export Plug-In . SVG Version: 6.00 Build 0)  -->
<!DOCTYPE svg PUBLIC "-//W3C//DTD SVG 1.1//EN" "http://www.w3.org/Graphics/SVG/1.1/DTD/svg11.dtd">
<svg version="1.1" id="Capa_1" xmlns="http://www.w3.org/2000/svg" xmlns:xlink="http://www.w3.org/1999/xlink" x="0px" y="0px"
	 viewBox="279.1 279.1 32 32" enable-background="new 279.1 279.1 32 32" xml:space="preserve">
<linearGradient id="ring_1_" gradientUnits="userSpaceOnUse" x1="295.0828" y1="279.0833" x2="295.0828" y2="311.0834">
	<stop  offset="0" style="stop-color:#81D981"/>
	<stop  offset="1" style="stop-color:#0F740F"/>
</linearGradient>
<circle id="ring" fill="url(#ring_1_)" cx="295.1" cy="295.1" r="16"/>
<path id="call" fill="#FFFFFF" d="M303.5,302.4l-1.3,1.3c-0.2,0.2-0.9,0.4-0.9,0.4c-4.1,0-8-1.6-10.8-4.4c-2.9-2.9-4.5-6.8-4.4-10.9
	c0,0,0.1-0.7,0.4-0.9l1.3-1.3c0.5-0.5,1.4-0.7,2-0.5l0.3,0.1c0.6,0.2,1.3,0.9,1.5,1.5l0.6,2.4c0.2,0.6-0.1,1.6-0.5,2l-0.9,0.9
	c0.8,3.1,3.3,5.5,6.4,6.4l0.9-0.9c0.5-0.5,1.4-0.7,2-0.5l2.4,0.6c0.6,0.2,1.3,0.8,1.5,1.5l0.1,0.3C304.2,301.1,304,302,303.5,302.4z
	"/>
</svg>
