<?xml version="1.0" encoding="utf-8"?>
<!-- Generator: Adobe Illustrator 17.1.0, SVG Export Plug-In . SVG Version: 6.00 Build 0)  -->
<!DOCTYPE svg PUBLIC "-//W3C//DTD SVG 1.1//EN" "http://www.w3.org/Graphics/SVG/1.1/DTD/svg11.dtd">
<svg version="1.1" id="Capa_1" xmlns="http://www.w3.org/2000/svg" xmlns:xlink="http://www.w3.org/1999/xlink" x="0px" y="0px"
	 viewBox="279.1 279.1 1000 1000" enable-background="new 279.1 279.1 1000 1000" xml:space="preserve">
<circle id="ring_1_" fill="#25BA62" cx="779.1" cy="779.1" r="500"/>
<path id="call" fill="#FFFFFF" d="M1041.6,1007.2l-40.6,40.6c-6.3,6.3-28.1,12.5-28.1,12.5c-128.1,0-250-50-337.5-137.5
	c-90.6-90.6-140.6-212.5-137.5-340.6c0,0,3.1-21.9,12.5-28.1l40.6-40.6c15.6-15.6,43.7-21.9,62.5-15.6l9.4,3.1
	c18.8,6.3,40.6,28.1,46.9,46.9l18.8,75c6.3,18.8-3.1,50-15.6,62.5l-28.1,28.1c25,96.9,103.1,171.9,200,200l28.1-28.1
	c15.6-15.6,43.7-21.9,62.5-15.6l75,18.8c18.8,6.3,40.6,25,46.9,46.9l3.1,9.4C1063.5,966.6,1057.2,994.7,1041.6,1007.2z"/>
</svg>
