<?xml version="1.0" encoding="utf-8"?>
<!-- Generator: Adobe Illustrator 17.1.0, SVG Export Plug-In . SVG Version: 6.00 Build 0)  -->
<!DOCTYPE svg PUBLIC "-//W3C//DTD SVG 1.1//EN" "http://www.w3.org/Graphics/SVG/1.1/DTD/svg11.dtd">
<svg version="1.1" id="Layer_1" xmlns="http://www.w3.org/2000/svg" xmlns:xlink="http://www.w3.org/1999/xlink" x="0px" y="0px"
	 viewBox="484.1 486.6 30.1 30" enable-background="new 484.1 486.6 30.1 30" xml:space="preserve">
<path fill="#FFFFFF" d="M492.4,494.7c0.6-0.8,0.6-1.9,0-2.6c-0.4-0.4-0.9-0.6-1.4-0.5c-0.4,0-0.9,0.2-1.3,0.5
	c-0.3,0.2-0.5,0.8-0.5,1.2v0.1l0,0c0,0.4,0.2,1,0.5,1.3C490.4,495.4,491.5,495.4,492.4,494.7C492.2,494.7,492.4,494.7,492.4,494.7z
	 M490.5,493.9c-0.1-0.1-0.2-0.3-0.2-0.5c0-0.1,0.1-0.2,0.2-0.3v-0.1c0.1-0.1,0.3-0.2,0.3-0.2c0.2,0,0.3,0.1,0.4,0.2
	c0.2,0.1,0.3,0.3,0.3,0.4s-0.1,0.3-0.2,0.5C491.2,494,490.7,494,490.5,493.9z M507.1,516.4l6.9-6.9c0.2-0.2,0.2-0.6,0-0.9
	l-22.1-21.9c-0.2-0.2-0.6-0.2-0.9,0l-6.8,6.9c-0.1,0.1-0.2,0.2-0.2,0.3c0,0.1,0.1,0.3,0.2,0.4l22.1,21.9
	C506.4,516.7,506.9,516.7,507.1,516.4z M504.7,513.1L504.7,513.1l2.9-3c0.2-0.2,0.2-0.6,0-0.9c-0.2-0.2-0.6-0.2-0.9,0l-2.9,3
	l-1.3-1.3l1.4-1.4c0.2-0.2,0.2-0.6,0-0.9c-0.2-0.2-0.6-0.2-0.9,0l-1.4,1.4l-1.3-1.3l3-3c0.2-0.2,0.2-0.6,0-0.9
	c-0.2-0.2-0.6-0.2-0.9,0l-3,3l-1.3-1.3l1.4-1.4c0.2-0.2,0.2-0.6,0-0.9c-0.2-0.2-0.6-0.2-0.9,0l-1.4,1.4l-1.3-1.3l3-2.9
	c0.2-0.2,0.2-0.6,0-0.9c-0.2-0.2-0.6-0.2-0.9,0l-3,2.9l-1.3-1.3l1.4-1.4c0.2-0.2,0.2-0.6,0-0.9c-0.2-0.2-0.6-0.2-0.9,0l-1.5,1.4
	l-1.3-1.3l2.7-2.7c0.2-0.2,0.2-0.6,0-0.9c-0.2-0.3-0.6-0.3-0.9-0.1l-2.7,2.7l-5.1-5.1l6-5.9l21.2,21.2l-6,5.9L504.7,513.1z"/>
</svg>
