<?xml version="1.0" encoding="utf-8"?>
<!-- Generator: Adobe Illustrator 17.1.0, SVG Export Plug-In . SVG Version: 6.00 Build 0)  -->
<!DOCTYPE svg PUBLIC "-//W3C//DTD SVG 1.1//EN" "http://www.w3.org/Graphics/SVG/1.1/DTD/svg11.dtd">
<svg version="1.1" id="Capa_1" xmlns="http://www.w3.org/2000/svg" xmlns:xlink="http://www.w3.org/1999/xlink" x="0px" y="0px"
	 viewBox="175 175 30 30" enable-background="new 175 175 30 30" xml:space="preserve">
<g>
	<g>
		<g>
			<path fill="#FFFFFF" d="M190,175c-8.3,0-15,6.7-15,15s6.7,15,15,15c8.3,0,15-6.7,15-15C205,181.7,198.3,175,190,175z M196.3,200
				l-0.6-1.1c-0.1-0.1-0.2-0.2-0.4-0.2c-0.1,0-0.1,0-0.2,0.1c-0.1,0.1-0.2,0.1-0.2,0.3c0,0.1,0,0.2,0,0.3l0.6,1.1
				c-1.4,0.8-3.1,1.3-4.8,1.4v-1.6c0-0.4-0.4-0.8-0.8-0.8c-0.4,0-0.8,0.4-0.8,0.8v1.6c-1.7-0.1-3.3-0.6-4.7-1.3l0.6-1.1
				c0.1-0.1,0.1-0.2,0-0.3c0-0.1-0.1-0.2-0.2-0.3c-0.1,0-0.1-0.1-0.2-0.1c-0.1,0-0.3,0.1-0.4,0.2l-0.6,1.1c-1.4-0.9-2.7-2.1-3.6-3.5
				l1.4-0.8c0.4-0.2,0.5-0.7,0.3-1.1c-0.2-0.4-0.7-0.5-1.1-0.3l-1.4,0.8c-0.7-1.4-1.1-3.1-1.2-4.8l1.3,0c0.1,0,0.2,0,0.3-0.1
				c0.1-0.1,0.1-0.2,0.1-0.3c0-0.2-0.2-0.4-0.4-0.4l-1.3,0c0.1-1.7,0.5-3.4,1.2-4.8l1.4,0.8c0.1,0.1,0.3,0.1,0.4,0.1
				c0.3,0,0.5-0.1,0.7-0.4c0.2-0.4,0.1-0.9-0.3-1.1l-1.4-0.8c0.9-1.4,2.1-2.5,3.5-3.4l0.6,1.1c0,0.1,0.1,0.1,0.2,0.2
				c0.1,0.1,0.3,0.1,0.4,0c0.1-0.1,0.2-0.1,0.2-0.3c0-0.1,0-0.2,0-0.3l-0.6-1.1c1.4-0.8,3.1-1.3,4.8-1.4v1.6c0,0.4,0.4,0.8,0.8,0.8
				c0.4,0,0.8-0.4,0.8-0.8v-1.6c1.7,0.1,3.3,0.6,4.7,1.3l-0.6,1.1c-0.1,0.2,0,0.5,0.2,0.6c0.1,0,0.1,0.1,0.2,0.1
				c0.1,0,0.3-0.1,0.4-0.2l0.6-1.1c1.4,0.9,2.7,2.1,3.6,3.5l-1.4,0.8c-0.4,0.2-0.5,0.7-0.3,1.1c0.1,0.3,0.4,0.4,0.7,0.4
				c0.1,0,0.3,0,0.4-0.1l1.4-0.8c0.7,1.4,1.1,3.1,1.2,4.8l-1.3,0c-0.1,0-0.2,0-0.3,0.1c-0.1,0.1-0.1,0.2-0.1,0.3
				c0,0.1,0.1,0.3,0.2,0.4c0.1,0,0.1,0.1,0.2,0.1h0l1.3,0c-0.1,1.7-0.5,3.4-1.2,4.8l-1.4-0.8c-0.4-0.2-0.9-0.1-1.1,0.3
				c-0.2,0.4-0.1,0.9,0.3,1.1l1.4,0.8C198.9,198,197.7,199.1,196.3,200z"/>
			<path fill="#FFFFFF" d="M195.8,185.7l-5.1,2.8c-0.2-0.1-0.5-0.2-0.8-0.2c-0.3,0-0.5,0.1-0.8,0.2l-5.1-2.8
				c-0.5-0.3-1.1-0.1-1.3,0.4c-0.3,0.5-0.1,1.1,0.4,1.3l5.2,2.9c0.1,0.8,0.8,1.3,1.6,1.3c0.8,0,1.5-0.6,1.6-1.3l5.2-2.9
				c0.5-0.3,0.7-0.9,0.4-1.3C196.9,185.6,196.3,185.5,195.8,185.7z"/>
		</g>
	</g>
</g>
</svg>
